<svg version="1.1" viewBox="0.0 0.0 960.0 540.0" fill="none" stroke="none" stroke-linecap="square" stroke-miterlimit="10" xmlns:xlink="http://www.w3.org/1999/xlink" xmlns="http://www.w3.org/2000/svg"><clipPath id="g2db92c917b6_0_0.0"><path d="m0 0l960.0 0l0 540.0l-960.0 0l0 -540.0z" clip-rule="nonzero"/></clipPath><g clip-path="url(#g2db92c917b6_0_0.0)"><path fill="#ffffff" d="m0 0l960.0 0l0 540.0l-960.0 0z" fill-rule="evenodd"/><path fill="#4c1130" d="m475.8714 6.0l280.50378 152.33856l0 223.32288l-280.50378 152.33856l-280.5038 -152.33856l0 -223.32288z" fill-rule="evenodd"/><path stroke="#ff00ff" stroke-width="8.0" stroke-linejoin="round" stroke-linecap="butt" d="m475.8714 6.0l280.50378 152.33856l0 223.32288l-280.50378 152.33856l-280.5038 -152.33856l0 -223.32288z" fill-rule="evenodd"/><g mask="url(#mask-g2db92c917b6_0_0.1)"><use xlink:href="#g2db92c917b6_0_0.1" transform="matrix(1.0 0.0 0.0 -1.0 0.0 404.21490280602535)"/></g><defs><mask id="mask-g2db92c917b6_0_0.1" maskUnits="userSpaceOnUse" x="168.44942630335052" y="127.1853067835901" width="620.8783145817607" height="201.4893408006967"><linearGradient gradientUnits="userSpaceOnUse" id="gradient-g2db92c917b6_0_0.1" x1="238.56281108658126" y1="204.10570338830576" x2="238.56278350612848" y2="211.72463387575797"><stop offset="0%" stop-color="#ffffff" stop-opacity="1.0"/><stop offset="100%" stop-color="#ffffff" stop-opacity="0.0"/></linearGradient><rect fill="url(#gradient-g2db92c917b6_0_0.1)" x="168.44942630335052" y="127.1853067835901" width="620.8783145817607" height="201.4893408006967"/></mask></defs><g id="g2db92c917b6_0_0.1"><g filter="url(#shadowFilter-g2db92c917b6_0_0.2)"><use xlink:href="#g2db92c917b6_0_0.2" transform="matrix(1.0 0.0 0.0 1.0 -1.113384776902906 7.922144619422584)"/></g><defs><filter id="shadowFilter-g2db92c917b6_0_0.2" filterUnits="userSpaceOnUse"><feGaussianBlur in="SourceAlpha" stdDeviation="23.0" result="blur"/><feComponentTransfer in="blur" color-interpolation-filters="sRGB"><feFuncR type="linear" slope="0" intercept="0.0"/><feFuncG type="linear" slope="0" intercept="0.0"/><feFuncB type="linear" slope="0" intercept="0.0"/><feFuncA type="linear" slope="0.59" intercept="0"/></feComponentTransfer></filter></defs><g id="g2db92c917b6_0_0.2"><path fill="#eeeeee" d="m267.57 155.2799c-1.8561096 0 -3.621399 0.5098114 -5.295929 1.529419c-1.6744995 1.0196075 -3.1741638 2.417328 -4.498993 4.1931458c-0.8718872 1.1746368 -1.636383 2.4626617 -2.2934418 3.8640747l0 0l-0.672287 -8.719971l-15.7465515 0l0 6.971588l0.4942932 0.15293884c0.49765015 0.15293884 0.90115356 0.3101349 1.210495 0.47157288c0.30934143 0.15293884 0.53463745 0.34835815 0.67585754 0.5862732c0.14794922 0.23791504 0.22192383 0.56503296 0.22192383 0.981369l0 23.565735c0 1.4104614 -0.21855164 2.3663483 -0.6556854 2.8676605c-0.4303894 0.4928131 -1.0390015 0.73921204 -1.8258362 0.73921204l-0.12104797 0l0 6.181381l18.90393 0l0 -6.181381l-0.25219727 0c-0.20175171 0 -0.42703247 -0.012741089 -0.6758423 -0.038238525c-0.24884033 -0.033981323 -0.4673767 -0.10195923 -0.6557007 -0.20391846c-0.18157959 -0.10195923 -0.27236938 -0.23365784 -0.27236938 -0.39509583l0 -21.422363l0 0c0.24032593 -0.49246216 0.475708 -0.9435272 0.70614624 -1.3531799c0.7666321 -1.3594818 1.4996643 -2.336609 2.1990662 -2.931366c0.7061157 -0.6032715 1.3685303 -0.9049072 1.9872131 -0.9049072c0.57836914 0 1.0322876 0.15718079 1.3618164 0.47157288c0.3295288 0.3058777 0.5548096 0.7349701 0.6758728 1.2872467c0.12774658 0.5437927 0.19165039 1.2362823 0.19165039 2.0774536l0 22.775543c0 0.16143799 -0.08407593 0.2931366 -0.25219727 0.39509583c-0.16137695 0.10195923 -0.3765869 0.16993713 -0.64559937 0.20391846c-0.26898193 0.025497437 -0.52789307 0.038238525 -0.7767334 0.038238525l-0.18154907 0l0 6.181381l18.217957 0l0 -6.181381l-0.18157959 0c-0.20846558 0 -0.44717407 -0.012741089 -0.7161865 -0.038238525c-0.26901245 -0.033981323 -0.49765015 -0.10195923 -0.6859741 -0.20391846c-0.18154907 -0.10195923 -0.27233887 -0.23365784 -0.27233887 -0.39509583l0 -21.467987l0 0c0.21932983 -0.42710876 0.4345398 -0.8247223 0.64559937 -1.1928406c0.7666321 -1.3339996 1.489563 -2.3238678 2.1687927 -2.9696198c0.6859436 -0.6542511 1.3786316 -0.981369 2.0780334 -0.981369c0.5783386 0 1.0221863 0.15718079 1.331543 0.47157288c0.30932617 0.3058777 0.53463745 0.7349701 0.6758423 1.2872467c0.14794922 0.5437927 0.22192383 1.2362823 0.22192383 2.0774536l0 22.775543c0 0.16143799 -0.09414673 0.2931366 -0.2824402 0.39509583c-0.18157959 0.10195923 -0.39678955 0.16993713 -0.64559937 0.20391846c-0.24880981 0.025497437 -0.51782227 0.038238525 -0.80700684 0.038238525l-0.121032715 0l0 6.181381l18.90393 0l0 -6.181381l-0.18157959 0c-0.7464905 0 -1.3382874 -0.24639893 -1.7753906 -0.73921204c-0.4303894 -0.50131226 -0.64559937 -1.4571991 -0.64559937 -2.8676605l0 -20.124542c0 -2.922882 -0.39343262 -5.3741913 -1.1802368 -7.353943c-0.78012085 -1.9882355 -1.9267273 -3.5049133 -3.4398499 -4.550003c-1.5063782 -1.045105 -3.3322144 -1.5676575 -5.477478 -1.5676575c-1.8628235 0 -3.6315002 0.4970703 -5.3060303 1.4911804c-1.6744995 0.99412537 -3.1741638 2.3790894 -4.498993 4.154907c-0.76474 1.0253906 -1.4468689 2.1408844 -2.0463562 3.3464508l0 0c-0.19866943 -1.0488739 -0.47485352 -2.0071716 -0.82858276 -2.874878c-0.80700684 -1.9882355 -1.9636841 -3.5049133 -3.4700928 -4.550003c-1.5064087 -1.045105 -3.3356018 -1.5676575 -5.4875793 -1.5676575z" fill-rule="evenodd"/><path fill="#eeeeee" d="m314.3636 137.1181c-2.394104 0 -4.2636414 0.66700745 -5.6086426 2.0009918c-1.3450012 1.3255005 -2.0174866 3.2669983 -2.0174866 5.824524c0 2.5575256 0.67248535 4.5032806 2.0174866 5.837265c1.3450012 1.3339844 3.214569 2.0009766 5.6086426 2.0009766c2.441162 0 4.320801 -0.6669922 5.6388855 -2.0009766c1.3248291 -1.3339844 1.9872437 -3.2797394 1.9872437 -5.837265c0 -2.5575256 -0.66241455 -4.4990234 -1.9872437 -5.824524c-1.3180847 -1.3339844 -3.1977234 -2.0009918 -5.6388855 -2.0009918zm-9.542755 19.028473l0 6.971588l0.4942932 0.15293884c0.74645996 0.20391846 1.2844849 0.4375763 1.6139832 0.70098877c0.3295288 0.26339722 0.4942932 0.70947266 0.4942932 1.3382263l0 23.565735c0 1.4104614 -0.2185669 2.3663483 -0.65567017 2.8676605c-0.4303894 0.4928131 -1.039032 0.73921204 -1.8258362 0.73921204l-0.12106323 0l0 6.181381l19.65039 0l0 -6.181381l-0.13113403 0c-0.7397461 0 -1.3382568 -0.24639893 -1.7955627 -0.73921204c-0.45059204 -0.50131226 -0.6758728 -1.4571991 -0.6758728 -2.8676605l0 -32.729477z" fill-rule="evenodd"/><path fill="#eeeeee" d="m344.55093 155.12697c-3.2212524 0 -6.0726624 0.48431396 -8.554169 1.4529419c-2.4815369 0.9601288 -4.425049 2.4980469 -5.8305664 4.613739c-1.4055176 2.1156921 -2.1082764 4.9238586 -2.1082764 8.42453c0 2.3960724 0.3395996 4.3928223 1.0188293 5.990204c0.6859436 1.5888977 1.6072693 2.8549042 2.763977 3.79805c1.1567078 0.9346466 2.4277039 1.6908569 3.8130493 2.268631c1.3853455 0.5692749 2.7807922 1.062088 4.18631 1.4784393c0.9885864 0.31437683 1.9266968 0.59051514 2.814392 0.8284302c0.8876953 0.23789978 1.6812744 0.5395355 2.3806458 0.9049072c0.70614624 0.36535645 1.2542114 0.824173 1.6442566 1.3764648c0.39678955 0.5437927 0.5951843 1.2830048 0.5951843 2.2176514c0 0.99412537 -0.1647644 1.8055573 -0.4942932 2.4343262c-0.3295288 0.6202545 -0.8473511 1.062088 -1.5534668 1.3254852c-0.69940186 0.26339722 -1.6274414 0.39509583 -2.7841492 0.39509583c-1.1163635 0 -2.1284485 -0.07646179 -3.0363464 -0.22940063c-0.7765503 -0.13809204 -1.4793091 -0.32281494 -2.1082764 -0.55415344l0 0l0 -6.188019l-9.6032715 0l0 10.4127655c0.5783386 0.36535645 1.5265808 0.8369293 2.8446655 1.4147034c1.3248291 0.5692749 2.9892578 1.062088 4.9933167 1.4784393c2.0040283 0.4248352 4.243469 0.6372528 6.7182617 0.6372528c4.0954895 0 7.4949646 -0.5352936 10.198425 -1.6058807c2.7101746 -1.0706024 4.714203 -2.752945 6.0121155 -5.0470734c1.304657 -2.3026123 1.9569702 -5.3062134 1.9569702 -9.010803c0 -2.2941284 -0.37322998 -4.222885 -1.11969 -5.7862854c-0.7464905 -1.5718994 -1.7384033 -2.8549194 -2.9757996 -3.8490295c-1.2373962 -0.99412537 -2.5891418 -1.788559 -4.055176 -2.3833313c-1.4660339 -0.6032715 -2.921997 -1.1385651 -4.3678894 -1.605896c-1.116333 -0.36535645 -2.1419067 -0.6797333 -3.0766602 -0.9431305c-0.92803955 -0.26339722 -1.7451477 -0.5480499 -2.4512634 -0.8539276c-0.69940186 -0.31437683 -1.2340393 -0.7179718 -1.6039124 -1.2107849c-0.36987305 -0.50131226 -0.5548096 -1.1683044 -0.5548096 -2.0009918c0 -1.2065277 0.35980225 -2.043457 1.0793762 -2.510788c0.72628784 -0.46731567 1.83255 -0.7009735 3.318756 -0.7009735c0.9482422 0 1.7922363 0.0637207 2.531952 0.19117737c0.62677 0.10700989 1.2084961 0.25294495 1.7451477 0.43782043l0 0l0 4.9278717l9.421692 0l0 -9.393158c-0.3765869 -0.26339722 -1.1432495 -0.64151 -2.2999268 -1.1343079c-1.1567078 -0.50131226 -2.6866455 -0.96014404 -4.589813 -1.3764801c-1.8964539 -0.41633606 -4.18631 -0.6245117 -6.869568 -0.6245117z" fill-rule="evenodd"/><path fill="#eeeeee" d="m380.8077 155.12697c-3.2212524 0 -6.0726624 0.48431396 -8.554169 1.4529419c-2.4815063 0.9601288 -4.425049 2.4980469 -5.8305664 4.613739c-1.4055176 2.1156921 -2.1082764 4.9238586 -2.1082764 8.42453c0 2.3960724 0.33963013 4.3928223 1.0188293 5.990204c0.6859436 1.5888977 1.6072693 2.8549042 2.763977 3.79805c1.1567078 0.9346466 2.4277039 1.6908569 3.8130493 2.268631c1.3853455 0.5692749 2.7807922 1.062088 4.18631 1.4784393c0.9885864 0.31437683 1.9266968 0.59051514 2.8144226 0.8284302c0.8876953 0.23789978 1.6812439 0.5395355 2.3806152 0.9049072c0.70614624 0.36535645 1.2542114 0.824173 1.6442871 1.3764648c0.39675903 0.5437927 0.5951538 1.2830048 0.5951538 2.2176514c0 0.99412537 -0.1647644 1.8055573 -0.4942932 2.4343262c-0.3295288 0.6202545 -0.8473511 1.062088 -1.5534668 1.3254852c-0.69940186 0.26339722 -1.6274414 0.39509583 -2.7841492 0.39509583c-1.1163635 0 -2.1284485 -0.07646179 -3.036316 -0.22940063c-0.7765808 -0.13809204 -1.4793396 -0.32281494 -2.108307 -0.55415344l0 0l0 -6.188019l-9.6032715 0l0 10.4127655c0.57836914 0.36535645 1.5265808 0.8369293 2.8446655 1.4147034c1.3248291 0.5692749 2.9892578 1.062088 4.9933167 1.4784393c2.0040283 0.4248352 4.243469 0.6372528 6.7182617 0.6372528c4.0954895 0 7.494995 -0.5352936 10.198425 -1.6058807c2.7101746 -1.0706024 4.714203 -2.752945 6.012146 -5.0470734c1.3046265 -2.3026123 1.9569702 -5.3062134 1.9569702 -9.010803c0 -2.2941284 -0.3732605 -4.222885 -1.1197205 -5.7862854c-0.7464905 -1.5718994 -1.7384033 -2.8549194 -2.9757996 -3.8490295c-1.2373962 -0.99412537 -2.5891418 -1.788559 -4.055176 -2.3833313c-1.4660339 -0.6032715 -2.921997 -1.1385651 -4.367859 -1.605896c-1.1163635 -0.36535645 -2.1419373 -0.6797333 -3.0766907 -0.9431305c-0.92803955 -0.26339722 -1.7451477 -0.5480499 -2.4512634 -0.8539276c-0.69940186 -0.31437683 -1.2340088 -0.7179718 -1.6039124 -1.2107849c-0.36987305 -0.50131226 -0.5548096 -1.1683044 -0.5548096 -2.0009918c0 -1.2065277 0.35980225 -2.043457 1.0793762 -2.510788c0.72628784 -0.46731567 1.83255 -0.7009735 3.3187866 -0.7009735c0.94821167 0 1.7922058 0.0637207 2.531952 0.19117737c0.6267395 0.10700989 1.2084656 0.25294495 1.7451172 0.43782043l0 0l0 4.9278717l9.421692 0l0 -9.393158c-0.3765869 -0.26339722 -1.143219 -0.64151 -2.2999268 -1.1343079c-1.1567078 -0.50131226 -2.6866455 -0.96014404 -4.589813 -1.3764801c-1.8964233 -0.41633606 -4.1862793 -0.6245117 -6.869568 -0.6245117z" fill-rule="evenodd"/><path fill="#eeeeee" d="m428.46335 155.2799c-1.8561096 0 -3.621399 0.5098114 -5.295929 1.529419c-1.67453 1.0196075 -3.1741943 2.417328 -4.4990234 4.1931458c-0.8718567 1.1746368 -1.6363525 2.4626617 -2.2934265 3.8640747l0 0l-0.6722717 -8.719971l-15.7465515 0l0 6.971588l0.4942932 0.15293884c0.49765015 0.15293884 0.90112305 0.3101349 1.2104797 0.47157288c0.3093567 0.15293884 0.53463745 0.34835815 0.6758728 0.5862732c0.14794922 0.23791504 0.22192383 0.56503296 0.22192383 0.981369l0 23.565735c0 1.4104614 -0.2185669 2.3663483 -0.6557007 2.8676605c-0.4303894 0.4928131 -1.0390015 0.73921204 -1.8258362 0.73921204l-0.121032715 0l0 6.181381l18.90393 0l0 -6.181381l-0.25219727 0c-0.20175171 0 -0.42703247 -0.012741089 -0.6758728 -0.038238525c-0.24880981 -0.033981323 -0.4673767 -0.10195923 -0.65567017 -0.20391846c-0.18157959 -0.10195923 -0.27236938 -0.23365784 -0.27236938 -0.39509583l0 -21.422363l0 0c0.24032593 -0.49246216 0.475708 -0.9435272 0.7061157 -1.3531799c0.7666626 -1.3594818 1.4996643 -2.336609 2.1990662 -2.931366c0.70614624 -0.6032715 1.3685303 -0.9049072 1.9872437 -0.9049072c0.5783386 0 1.0322876 0.15718079 1.3618164 0.47157288c0.3295288 0.3058777 0.5548096 0.7349701 0.6758423 1.2872467c0.1277771 0.5437927 0.19168091 1.2362823 0.19168091 2.0774536l0 22.775543c0 0.16143799 -0.08407593 0.2931366 -0.25219727 0.39509583c-0.16140747 0.10195923 -0.3765869 0.16993713 -0.64559937 0.20391846c-0.26898193 0.025497437 -0.52789307 0.038238525 -0.7767334 0.038238525l-0.18157959 0l0 6.181381l18.217987 0l0 -6.181381l-0.18157959 0c-0.20846558 0 -0.4472046 -0.012741089 -0.71621704 -0.038238525c-0.26898193 -0.033981323 -0.49765015 -0.10195923 -0.6859436 -0.20391846c-0.18157959 -0.10195923 -0.27236938 -0.23365784 -0.27236938 -0.39509583l0 -21.467987l0 0c0.21936035 -0.42710876 0.4345703 -0.8247223 0.64559937 -1.1928406c0.7666626 -1.3339996 1.4895935 -2.3238678 2.1688232 -2.9696198c0.6859436 -0.6542511 1.3786011 -0.981369 2.078003 -0.981369c0.57836914 0 1.0222168 0.15718079 1.331543 0.47157288c0.3093567 0.3058777 0.53463745 0.7349701 0.6758728 1.2872467c0.14794922 0.5437927 0.22192383 1.2362823 0.22192383 2.0774536l0 22.775543c0 0.16143799 -0.09414673 0.2931366 -0.2824402 0.39509583c-0.18157959 0.10195923 -0.39678955 0.16993713 -0.64559937 0.20391846c-0.24884033 0.025497437 -0.51782227 0.038238525 -0.80700684 0.038238525l-0.121032715 0l0 6.181381l18.9039 0l0 -6.181381l-0.18157959 0c-0.74645996 0 -1.3382568 -0.24639893 -1.7753906 -0.73921204c-0.4303894 -0.50131226 -0.64559937 -1.4571991 -0.64559937 -2.8676605l0 -20.124542c0 -2.922882 -0.3934021 -5.3741913 -1.1802368 -7.353943c-0.78009033 -1.9882355 -1.9266968 -3.5049133 -3.4398193 -4.550003c-1.5063782 -1.045105 -3.3322144 -1.5676575 -5.4775085 -1.5676575c-1.862793 0 -3.6314697 0.4970703 -5.3059998 1.4911804c-1.67453 0.99412537 -3.1741943 2.3790894 -4.4990234 4.154907c-0.76474 1.0253906 -1.4468689 2.1408844 -2.0463562 3.3464508l0 0c-0.19866943 -1.0488739 -0.47485352 -2.0071716 -0.82855225 -2.874878c-0.80700684 -1.9882355 -1.9637146 -3.5049133 -3.4700928 -4.550003c-1.5064087 -1.045105 -3.3356018 -1.5676575 -5.4875793 -1.5676575z" fill-rule="evenodd"/><path fill="#eeeeee" d="m485.60666 164.6858c1.0356445 0 1.913269 0.3653717 2.632843 1.0960846c0.6586609 0.6626892 1.3311462 1.6153717 2.0174866 2.8580627l0 0l0 16.452408l0 0c-0.07525635 0.14324951 -0.14923096 0.2829132 -0.22192383 0.41897583c-0.8876953 1.6653748 -1.7148743 2.8506622 -2.4815063 3.555893c-0.75994873 0.7052307 -1.6140137 1.0578461 -2.5622253 1.0578461c-0.8675232 0 -1.5803833 -0.23365784 -2.1385498 -0.7009735c-0.5581665 -0.46733093 -1.0020142 -1.1980438 -1.331543 -2.1921692c-0.3295288 -0.9941101 -0.5581665 -2.2473907 -0.6859436 -3.7598114c-0.12106323 -1.5124207 -0.18157959 -3.3392181 -0.18157959 -5.4804077c0 -2.192154 0.08068848 -4.1209106 0.24209595 -5.7862854c0.16812134 -1.6738586 0.4472046 -3.0588226 0.83724976 -4.154907c0.39678955 -1.0960846 0.9146118 -1.9287567 1.5534668 -2.4980469c0.6388855 -0.57777405 1.412262 -0.8666687 2.3201294 -0.8666687zm1.9872437 -25.375534l0 6.729431l0.37322998 0.16567993c0.49093628 0.20391846 0.90115356 0.38659668 1.2306824 0.54803467c0.33624268 0.1529541 0.5951538 0.33563232 0.7767334 0.5480499c0.18829346 0.20391846 0.2824402 0.51405334 0.2824402 0.9303894l0 12.657288l0 0c-1.0796814 -1.7323303 -2.3607788 -3.0667877 -3.8433228 -4.0033417c-1.6072693 -1.0196228 -3.4667358 -1.529419 -5.578369 -1.529419c-3.0531616 0 -5.7061462 0.981369 -7.959015 2.9441223c-2.2528687 1.9542542 -3.991272 4.6434784 -5.2152405 8.067657c-1.2172241 3.4156952 -1.8258362 7.290222 -1.8258362 11.62355c0 4.2313843 0.558197 7.9657135 1.67453 11.202972c1.1163635 3.237259 2.7370605 5.769287 4.862152 7.5960846c2.131836 1.8268127 4.747864 2.7402039 7.848053 2.7402039c2.2730408 0 4.203125 -0.56077576 5.790222 -1.6823578c1.593811 -1.1300659 2.9690857 -2.7614288 4.125763 -4.8941193c0.32235718 -0.59669495 0.6365967 -1.2280121 0.942749 -1.8939819l0 0l0.67126465 7.6037903l15.554871 0l0 -6.729416l-0.43374634 -0.16569519c-0.7464905 -0.25489807 -1.2844849 -0.50131226 -1.6140137 -0.73921204c-0.3295288 -0.23789978 -0.4942627 -0.6669922 -0.4942627 -1.287262l0 -50.43245z" fill-rule="evenodd"/><path fill="#eeeeee" d="m531.03595 178.96715l0 8.9809265l0 0c-0.35681152 0.6981201 -0.70648193 1.296341 -1.0490723 1.7946472c-0.57836914 0.8326874 -1.1466675 1.444458 -1.704834 1.8352966c-0.5581665 0.39085388 -1.1466064 0.58628845 -1.7652588 0.58628845c-0.6657715 0 -1.2374268 -0.14445496 -1.7149048 -0.43333435c-0.47076416 -0.28889465 -0.8204346 -0.78170776 -1.0490723 -1.4784393c-0.22192383 -0.7052307 -0.33288574 -1.686615 -0.33288574 -2.9441223c0 -0.73072815 0.06048584 -1.4487 0.18157959 -2.1539307c0.121032715 -0.7052307 0.34631348 -1.3552246 0.6758423 -1.949997c0.33624268 -0.6032715 0.8137207 -1.1768036 1.4324341 -1.7205963c0.6187134 -0.55229187 1.4223022 -1.0493469 2.4108887 -1.4911804c0.81915283 -0.370636 1.7908936 -0.7124939 2.9152832 -1.0255585zm-2.4108887 -23.68724c-2.979187 0 -5.5649414 0.32713318 -7.757263 0.9813843c-2.185669 0.65423584 -3.9812012 1.3977051 -5.3867188 2.2303925c-1.4055176 0.8326721 -2.4378052 1.5124207 -3.0968628 2.039215l0 10.183365l10.965088 0l0 -7.289398l0 0c1.0048218 -0.467865 2.2456055 -0.7017975 3.72229 -0.7017975c1.116333 0 1.9536133 0.15718079 2.5117798 0.47155762c0.5581665 0.3143921 0.93811035 0.7604675 1.1398926 1.3382416c0.20843506 0.56929016 0.3126831 1.1938019 0.3126831 1.8735352l0 6.7859344l0 0c-3.565857 0.64711 -6.6257324 1.3759766 -9.179626 2.1866302c-2.7235718 0.8581848 -4.9327393 1.8607941 -6.6274414 3.0078583c-1.6879883 1.147049 -2.925354 2.5320282 -3.7121887 4.154907c-0.7868347 1.6143799 -1.1802368 3.568634 -1.1802368 5.8627625c0 2.60849 0.3833313 4.724182 1.1499634 6.347061c0.7666321 1.6143799 1.9536438 2.816681 3.5608826 3.6068726c1.6140137 0.78170776 3.6382446 1.1725464 6.072632 1.1725464c1.9031982 0 3.5474854 -0.31437683 4.9328003 -0.9431305c1.385376 -0.6287689 2.5823975 -1.6186371 3.5911255 -2.9696198c0.74780273 -1.0010986 1.442688 -2.2717285 2.0847168 -3.8118896l0 0l0.6086426 6.857971l15.373291 0l0 -6.729416l-0.4942627 -0.16569519c-0.49761963 -0.20391846 -0.90112305 -0.3695984 -1.2105103 -0.49705505c-0.30932617 -0.13594055 -0.53796387 -0.31863403 -0.6859131 -0.54803467c-0.14123535 -0.23791504 -0.21185303 -0.56503296 -0.21185303 -0.9813843l0 -20.21376c0 -2.3960876 -0.36315918 -4.4820404 -1.0894165 -6.2578583c-0.7196045 -1.7758179 -1.7821655 -3.25 -3.187683 -4.4225616c-1.4055176 -1.1725464 -3.1304932 -2.0604553 -5.1748657 -2.6637268c-2.0443726 -0.6032715 -4.3880615 -0.9049072 -7.030945 -0.9049072z" fill-rule="evenodd"/><path fill="#eeeeee" d="m553.96643 144.24263l0 8.220612c0 1.1980438 -0.18493652 2.0859528 -0.5548096 2.6637268c-0.36987305 0.57777405 -0.8776245 0.9601288 -1.5231934 1.1470642c-0.638855 0.17843628 -1.3920898 0.26763916 -2.2595825 0.26763916l-0.37322998 0l0 6.958847l4.2770996 0l0 22.316711c0 3.5006561 0.59851074 6.2578583 1.7955322 8.271576c1.2037964 2.005249 2.8581543 3.4156952 4.9630737 4.2313843c2.1049194 0.80718994 4.562866 1.2107849 7.3739014 1.2107849c1.3651733 0 2.6260986 -0.080718994 3.782837 -0.24215698c1.1566772 -0.15293884 2.1687622 -0.34835815 3.036316 -0.5862732c0.8674927 -0.23789978 1.5299072 -0.43333435 1.9872437 -0.5862732l0 -7.9147186c-0.24884033 0 -0.7565918 0.09346008 -1.5232544 0.2803955c-0.76660156 0.17842102 -1.6038818 0.26763916 -2.5117798 0.26763916c-0.94818115 0 -1.7417603 -0.15293884 -2.3806152 -0.45881653c-0.638855 -0.31437683 -1.1365356 -0.9006653 -1.4929199 -1.7588348c-0.34973145 -0.8666687 -0.52459717 -2.107193 -0.52459717 -3.7215729l0 -21.309845l8.735779 0l0 -7.353943l-8.735779 0l0 -11.903946z" fill-rule="evenodd"/><path fill="#eeeeee" d="m598.78174 163.02895c1.2374268 0 2.2058105 0.4588318 2.9052124 1.3764801c0.7061157 0.9176483 1.2037964 2.434311 1.4929199 4.550003c0.28918457 2.107193 0.43377686 4.936615 0.43377686 8.488251c0 3.5516357 -0.14459229 6.398056 -0.43377686 8.53923c-0.28912354 2.1411896 -0.7868042 3.6960907 -1.4929199 4.6647186c-0.69940186 0.9601288 -1.6677856 1.4402008 -2.9052124 1.4402008c-1.2373657 0 -2.1990356 -0.48007202 -2.8850098 -1.4402008c-0.6791992 -0.9686279 -1.1633911 -2.523529 -1.4525757 -4.6647186c-0.28918457 -2.1411743 -0.43377686 -4.9875946 -0.43377686 -8.53923c0 -3.5516357 0.14459229 -6.3810577 0.43377686 -8.488251c0.28918457 -2.1156921 0.78344727 -3.6323547 1.4828491 -4.550003c0.7061157 -0.9176483 1.6577148 -1.3764801 2.8547363 -1.3764801zm0 -7.7490387c-3.140564 0 -5.9213257 0.5098114 -8.342346 1.529419c-2.4142456 1.0196075 -4.458618 2.4937897 -6.1331787 4.4225616c-1.6744995 1.9287567 -2.9454956 4.2653656 -3.8130493 7.0098114c-0.8674927 2.7444458 -1.3012695 5.837265 -1.3012695 9.278458c0 4.494766 0.76330566 8.399033 2.289856 11.712769c1.5332642 3.3137207 3.7559204 5.8712463 6.6677856 7.6725616c2.9119263 1.8013153 6.4559937 2.7019653 10.632202 2.7019653c4.2165527 0 7.7808228 -0.90065 10.692749 -2.7019653c2.9119263 -1.8013153 5.1210938 -4.358841 6.6274414 -7.6725616c1.5064087 -3.313736 2.2595825 -7.2180023 2.2595825 -11.712769c0 -3.4411926 -0.42364502 -6.5170135 -1.2709961 -9.227478c-0.8473511 -2.7189484 -2.1082764 -5.0555573 -3.7827759 -7.0098114c-1.6677856 -1.9627533 -3.72229 -3.4539337 -6.163452 -4.4735413c-2.4344482 -1.0196075 -5.221985 -1.529419 -8.362549 -1.529419z" fill-rule="evenodd"/><path fill="#eeeeee" d="m641.67017 163.02895c1.2373657 0 2.2057495 0.4588318 2.9051514 1.3764801c0.7061157 0.9176483 1.2037964 2.434311 1.492981 4.550003c0.28912354 2.107193 0.43371582 4.936615 0.43371582 8.488251c0 3.5516357 -0.14459229 6.398056 -0.43371582 8.53923c-0.28918457 2.1411896 -0.78686523 3.6960907 -1.492981 4.6647186c-0.69940186 0.9601288 -1.6677856 1.4402008 -2.9051514 1.4402008c-1.2374268 0 -2.1990967 -0.48007202 -2.8850098 -1.4402008c-0.67926025 -0.9686279 -1.1634521 -2.523529 -1.4526367 -4.6647186c-0.28918457 -2.1411743 -0.43377686 -4.9875946 -0.43377686 -8.53923c0 -3.5516357 0.14459229 -6.3810577 0.43377686 -8.488251c0.28918457 -2.1156921 0.78344727 -3.6323547 1.4828491 -4.550003c0.7061157 -0.9176483 1.6577148 -1.3764801 2.8547974 -1.3764801zm0 -7.7490387c-3.140564 0 -5.9213867 0.5098114 -8.342346 1.529419c-2.4143066 1.0196075 -4.458679 2.4937897 -6.1331787 4.4225616c-1.6745605 1.9287567 -2.9455566 4.2653656 -3.8131104 7.0098114c-0.8674927 2.7444458 -1.3012695 5.837265 -1.3012695 9.278458c0 4.494766 0.76330566 8.399033 2.289856 11.712769c1.5333252 3.3137207 3.7559204 5.8712463 6.6678467 7.6725616c2.9119263 1.8013153 6.4559937 2.7019653 10.632202 2.7019653c4.2165527 0 7.7807617 -0.90065 10.692688 -2.7019653c2.9119263 -1.8013153 5.1210938 -4.358841 6.6275024 -7.6725616c1.5064087 -3.313736 2.2595825 -7.2180023 2.2595825 -11.712769c0 -3.4411926 -0.42370605 -6.5170135 -1.2710571 -9.227478c-0.8473511 -2.7189484 -2.1082764 -5.0555573 -3.7827759 -7.0098114c-1.6677856 -1.9627533 -3.72229 -3.4539337 -6.163452 -4.4735413c-2.4344482 -1.0196075 -5.221924 -1.529419 -8.362488 -1.529419z" fill-rule="evenodd"/><path fill="#eeeeee" d="m664.72363 139.31027l0 6.729431l0.49432373 0.16567993c0.4572754 0.15293884 0.850708 0.3101349 1.1802368 0.47157288c0.32946777 0.15293884 0.5648804 0.34835815 0.7061157 0.5862732c0.14794922 0.2294159 0.22192383 0.55229187 0.22192383 0.9686279l0 40.644196c0 1.4104614 -0.2185669 2.3663483 -0.6557007 2.8676605c-0.43041992 0.4928131 -1.0390015 0.73921204 -1.8258667 0.73921204l-0.121032715 0l0 6.181381l19.65039 0l0 -6.181381l-0.13110352 0c-0.7397461 0 -1.3383179 -0.24639893 -1.7955933 -0.73921204c-0.45056152 -0.50131226 -0.6758423 -1.4571991 -0.6758423 -2.8676605l0 -49.56578z" fill-rule="evenodd"/><path fill="#eeeeee" d="m705.07355 155.12697c-3.2213135 0 -6.072693 0.48431396 -8.554199 1.4529419c-2.4815063 0.9601288 -4.425049 2.4980469 -5.8305664 4.613739c-1.4055176 2.1156921 -2.1082764 4.9238586 -2.1082764 8.42453c0 2.3960724 0.3395996 4.3928223 1.0188599 5.990204c0.6859131 1.5888977 1.6072388 2.8549042 2.763977 3.79805c1.1566772 0.9346466 2.4276733 1.6908569 3.8130493 2.268631c1.385315 0.5692749 2.7807617 1.062088 4.1862793 1.4784393c0.9885864 0.31437683 1.9266968 0.59051514 2.814392 0.8284302c0.8876953 0.23789978 1.6812744 0.5395355 2.3806763 0.9049072c0.7061157 0.36535645 1.2542114 0.824173 1.6442261 1.3764648c0.39678955 0.5437927 0.5951538 1.2830048 0.5951538 2.2176514c0 0.99412537 -0.16473389 1.8055573 -0.4942627 2.4343262c-0.3295288 0.6202545 -0.8473511 1.062088 -1.5534668 1.3254852c-0.69940186 0.26339722 -1.6274414 0.39509583 -2.7841187 0.39509583c-1.116333 0 -2.128479 -0.07646179 -3.036377 -0.22940063c-0.7765503 -0.13809204 -1.4793091 -0.32281494 -2.1082764 -0.55415344l0 0l0 -6.188019l-9.6032715 0l0 10.4127655c0.57836914 0.36535645 1.5266113 0.8369293 2.8446655 1.4147034c1.3248291 0.5692749 2.9892578 1.062088 4.993347 1.4784393c2.0040283 0.4248352 4.243408 0.6372528 6.7182007 0.6372528c4.09552 0 7.494995 -0.5352936 10.198486 -1.6058807c2.710144 -1.0706024 4.7141724 -2.752945 6.012085 -5.0470734c1.3046875 -2.3026123 1.9569702 -5.3062134 1.9569702 -9.010803c0 -2.2941284 -0.37322998 -4.222885 -1.11969 -5.7862854c-0.74645996 -1.5718994 -1.7384033 -2.8549194 -2.975769 -3.8490295c-1.2374268 -0.99412537 -2.5891113 -1.788559 -4.055176 -2.3833313c-1.4660645 -0.6032715 -2.922058 -1.1385651 -4.36792 -1.605896c-1.116333 -0.36535645 -2.1418457 -0.6797333 -3.0766602 -0.9431305c-0.92803955 -0.26339722 -1.7451172 -0.5480499 -2.451233 -0.8539276c-0.69940186 -0.31437683 -1.2340698 -0.7179718 -1.6039429 -1.2107849c-0.36987305 -0.50131226 -0.5548096 -1.1683044 -0.5548096 -2.0009918c0 -1.2065277 0.35980225 -2.043457 1.0794067 -2.510788c0.7262573 -0.46731567 1.8325195 -0.7009735 3.3187256 -0.7009735c0.9482422 0 1.7922363 0.0637207 2.5319824 0.19117737c0.62677 0.10700989 1.208435 0.25294495 1.7451172 0.43782043l0 0l0 4.9278717l9.421692 0l0 -9.393158c-0.3765869 -0.26339722 -1.1432495 -0.64151 -2.2999268 -1.1343079c-1.1566772 -0.50131226 -2.6865845 -0.96014404 -4.5897827 -1.3764801c-1.8964844 -0.41633606 -4.1863403 -0.6245117 -6.869568 -0.6245117z" fill-rule="evenodd"/><path stroke="#595959" stroke-width="1.0" stroke-linejoin="round" stroke-linecap="butt" d="m267.57 155.2799c-1.8561096 0 -3.621399 0.5098114 -5.295929 1.529419c-1.6744995 1.0196075 -3.1741638 2.417328 -4.498993 4.1931458c-0.8718872 1.1746368 -1.636383 2.4626617 -2.2934418 3.8640747l0 0l-0.672287 -8.719971l-15.7465515 0l0 6.971588l0.4942932 0.15293884c0.49765015 0.15293884 0.90115356 0.3101349 1.210495 0.47157288c0.30934143 0.15293884 0.53463745 0.34835815 0.67585754 0.5862732c0.14794922 0.23791504 0.22192383 0.56503296 0.22192383 0.981369l0 23.565735c0 1.4104614 -0.21855164 2.3663483 -0.6556854 2.8676605c-0.4303894 0.4928131 -1.0390015 0.73921204 -1.8258362 0.73921204l-0.12104797 0l0 6.181381l18.90393 0l0 -6.181381l-0.25219727 0c-0.20175171 0 -0.42703247 -0.012741089 -0.6758423 -0.038238525c-0.24884033 -0.033981323 -0.4673767 -0.10195923 -0.6557007 -0.20391846c-0.18157959 -0.10195923 -0.27236938 -0.23365784 -0.27236938 -0.39509583l0 -21.422363l0 0c0.24032593 -0.49246216 0.475708 -0.9435272 0.70614624 -1.3531799c0.7666321 -1.3594818 1.4996643 -2.336609 2.1990662 -2.931366c0.7061157 -0.6032715 1.3685303 -0.9049072 1.9872131 -0.9049072c0.57836914 0 1.0322876 0.15718079 1.3618164 0.47157288c0.3295288 0.3058777 0.5548096 0.7349701 0.6758728 1.2872467c0.12774658 0.5437927 0.19165039 1.2362823 0.19165039 2.0774536l0 22.775543c0 0.16143799 -0.08407593 0.2931366 -0.25219727 0.39509583c-0.16137695 0.10195923 -0.3765869 0.16993713 -0.64559937 0.20391846c-0.26898193 0.025497437 -0.52789307 0.038238525 -0.7767334 0.038238525l-0.18154907 0l0 6.181381l18.217957 0l0 -6.181381l-0.18157959 0c-0.20846558 0 -0.44717407 -0.012741089 -0.7161865 -0.038238525c-0.26901245 -0.033981323 -0.49765015 -0.10195923 -0.6859741 -0.20391846c-0.18154907 -0.10195923 -0.27233887 -0.23365784 -0.27233887 -0.39509583l0 -21.467987l0 0c0.21932983 -0.42710876 0.4345398 -0.8247223 0.64559937 -1.1928406c0.7666321 -1.3339996 1.489563 -2.3238678 2.1687927 -2.9696198c0.6859436 -0.6542511 1.3786316 -0.981369 2.0780334 -0.981369c0.5783386 0 1.0221863 0.15718079 1.331543 0.47157288c0.30932617 0.3058777 0.53463745 0.7349701 0.6758423 1.2872467c0.14794922 0.5437927 0.22192383 1.2362823 0.22192383 2.0774536l0 22.775543c0 0.16143799 -0.09414673 0.2931366 -0.2824402 0.39509583c-0.18157959 0.10195923 -0.39678955 0.16993713 -0.64559937 0.20391846c-0.24880981 0.025497437 -0.51782227 0.038238525 -0.80700684 0.038238525l-0.121032715 0l0 6.181381l18.90393 0l0 -6.181381l-0.18157959 0c-0.7464905 0 -1.3382874 -0.24639893 -1.7753906 -0.73921204c-0.4303894 -0.50131226 -0.64559937 -1.4571991 -0.64559937 -2.8676605l0 -20.124542c0 -2.922882 -0.39343262 -5.3741913 -1.1802368 -7.353943c-0.78012085 -1.9882355 -1.9267273 -3.5049133 -3.4398499 -4.550003c-1.5063782 -1.045105 -3.3322144 -1.5676575 -5.477478 -1.5676575c-1.8628235 0 -3.6315002 0.4970703 -5.3060303 1.4911804c-1.6744995 0.99412537 -3.1741638 2.3790894 -4.498993 4.154907c-0.76474 1.0253906 -1.4468689 2.1408844 -2.0463562 3.3464508l0 0c-0.19866943 -1.0488739 -0.47485352 -2.0071716 -0.82858276 -2.874878c-0.80700684 -1.9882355 -1.9636841 -3.5049133 -3.4700928 -4.550003c-1.5064087 -1.045105 -3.3356018 -1.5676575 -5.4875793 -1.5676575z" fill-rule="evenodd"/><path stroke="#595959" stroke-width="1.0" stroke-linejoin="round" stroke-linecap="butt" d="m314.3636 137.1181c-2.394104 0 -4.2636414 0.66700745 -5.6086426 2.0009918c-1.3450012 1.3255005 -2.0174866 3.2669983 -2.0174866 5.824524c0 2.5575256 0.67248535 4.5032806 2.0174866 5.837265c1.3450012 1.3339844 3.214569 2.0009766 5.6086426 2.0009766c2.441162 0 4.320801 -0.6669922 5.6388855 -2.0009766c1.3248291 -1.3339844 1.9872437 -3.2797394 1.9872437 -5.837265c0 -2.5575256 -0.66241455 -4.4990234 -1.9872437 -5.824524c-1.3180847 -1.3339844 -3.1977234 -2.0009918 -5.6388855 -2.0009918zm-9.542755 19.028473l0 6.971588l0.4942932 0.15293884c0.74645996 0.20391846 1.2844849 0.4375763 1.6139832 0.70098877c0.3295288 0.26339722 0.4942932 0.70947266 0.4942932 1.3382263l0 23.565735c0 1.4104614 -0.2185669 2.3663483 -0.65567017 2.8676605c-0.4303894 0.4928131 -1.039032 0.73921204 -1.8258362 0.73921204l-0.12106323 0l0 6.181381l19.65039 0l0 -6.181381l-0.13113403 0c-0.7397461 0 -1.3382568 -0.24639893 -1.7955627 -0.73921204c-0.45059204 -0.50131226 -0.6758728 -1.4571991 -0.6758728 -2.8676605l0 -32.729477z" fill-rule="evenodd"/><path stroke="#595959" stroke-width="1.0" stroke-linejoin="round" stroke-linecap="butt" d="m344.55093 155.12697c-3.2212524 0 -6.0726624 0.48431396 -8.554169 1.4529419c-2.4815369 0.9601288 -4.425049 2.4980469 -5.8305664 4.613739c-1.4055176 2.1156921 -2.1082764 4.9238586 -2.1082764 8.42453c0 2.3960724 0.3395996 4.3928223 1.0188293 5.990204c0.6859436 1.5888977 1.6072693 2.8549042 2.763977 3.79805c1.1567078 0.9346466 2.4277039 1.6908569 3.8130493 2.268631c1.3853455 0.5692749 2.7807922 1.062088 4.18631 1.4784393c0.9885864 0.31437683 1.9266968 0.59051514 2.814392 0.8284302c0.8876953 0.23789978 1.6812744 0.5395355 2.3806458 0.9049072c0.70614624 0.36535645 1.2542114 0.824173 1.6442566 1.3764648c0.39678955 0.5437927 0.5951843 1.2830048 0.5951843 2.2176514c0 0.99412537 -0.1647644 1.8055573 -0.4942932 2.4343262c-0.3295288 0.6202545 -0.8473511 1.062088 -1.5534668 1.3254852c-0.69940186 0.26339722 -1.6274414 0.39509583 -2.7841492 0.39509583c-1.1163635 0 -2.1284485 -0.07646179 -3.0363464 -0.22940063c-0.7765503 -0.13809204 -1.4793091 -0.32281494 -2.1082764 -0.55415344l0 0l0 -6.188019l-9.6032715 0l0 10.4127655c0.5783386 0.36535645 1.5265808 0.8369293 2.8446655 1.4147034c1.3248291 0.5692749 2.9892578 1.062088 4.9933167 1.4784393c2.0040283 0.4248352 4.243469 0.6372528 6.7182617 0.6372528c4.0954895 0 7.4949646 -0.5352936 10.198425 -1.6058807c2.7101746 -1.0706024 4.714203 -2.752945 6.0121155 -5.0470734c1.304657 -2.3026123 1.9569702 -5.3062134 1.9569702 -9.010803c0 -2.2941284 -0.37322998 -4.222885 -1.11969 -5.7862854c-0.7464905 -1.5718994 -1.7384033 -2.8549194 -2.9757996 -3.8490295c-1.2373962 -0.99412537 -2.5891418 -1.788559 -4.055176 -2.3833313c-1.4660339 -0.6032715 -2.921997 -1.1385651 -4.3678894 -1.605896c-1.116333 -0.36535645 -2.1419067 -0.6797333 -3.0766602 -0.9431305c-0.92803955 -0.26339722 -1.7451477 -0.5480499 -2.4512634 -0.8539276c-0.69940186 -0.31437683 -1.2340393 -0.7179718 -1.6039124 -1.2107849c-0.36987305 -0.50131226 -0.5548096 -1.1683044 -0.5548096 -2.0009918c0 -1.2065277 0.35980225 -2.043457 1.0793762 -2.510788c0.72628784 -0.46731567 1.83255 -0.7009735 3.318756 -0.7009735c0.9482422 0 1.7922363 0.0637207 2.531952 0.19117737c0.62677 0.10700989 1.2084961 0.25294495 1.7451477 0.43782043l0 0l0 4.9278717l9.421692 0l0 -9.393158c-0.3765869 -0.26339722 -1.1432495 -0.64151 -2.2999268 -1.1343079c-1.1567078 -0.50131226 -2.6866455 -0.96014404 -4.589813 -1.3764801c-1.8964539 -0.41633606 -4.18631 -0.6245117 -6.869568 -0.6245117z" fill-rule="evenodd"/><path stroke="#595959" stroke-width="1.0" stroke-linejoin="round" stroke-linecap="butt" d="m380.8077 155.12697c-3.2212524 0 -6.0726624 0.48431396 -8.554169 1.4529419c-2.4815063 0.9601288 -4.425049 2.4980469 -5.8305664 4.613739c-1.4055176 2.1156921 -2.1082764 4.9238586 -2.1082764 8.42453c0 2.3960724 0.33963013 4.3928223 1.0188293 5.990204c0.6859436 1.5888977 1.6072693 2.8549042 2.763977 3.79805c1.1567078 0.9346466 2.4277039 1.6908569 3.8130493 2.268631c1.3853455 0.5692749 2.7807922 1.062088 4.18631 1.4784393c0.9885864 0.31437683 1.9266968 0.59051514 2.8144226 0.8284302c0.8876953 0.23789978 1.6812439 0.5395355 2.3806152 0.9049072c0.70614624 0.36535645 1.2542114 0.824173 1.6442871 1.3764648c0.39675903 0.5437927 0.5951538 1.2830048 0.5951538 2.2176514c0 0.99412537 -0.1647644 1.8055573 -0.4942932 2.4343262c-0.3295288 0.6202545 -0.8473511 1.062088 -1.5534668 1.3254852c-0.69940186 0.26339722 -1.6274414 0.39509583 -2.7841492 0.39509583c-1.1163635 0 -2.1284485 -0.07646179 -3.036316 -0.22940063c-0.7765808 -0.13809204 -1.4793396 -0.32281494 -2.108307 -0.55415344l0 0l0 -6.188019l-9.6032715 0l0 10.4127655c0.57836914 0.36535645 1.5265808 0.8369293 2.8446655 1.4147034c1.3248291 0.5692749 2.9892578 1.062088 4.9933167 1.4784393c2.0040283 0.4248352 4.243469 0.6372528 6.7182617 0.6372528c4.0954895 0 7.494995 -0.5352936 10.198425 -1.6058807c2.7101746 -1.0706024 4.714203 -2.752945 6.012146 -5.0470734c1.3046265 -2.3026123 1.9569702 -5.3062134 1.9569702 -9.010803c0 -2.2941284 -0.3732605 -4.222885 -1.1197205 -5.7862854c-0.7464905 -1.5718994 -1.7384033 -2.8549194 -2.9757996 -3.8490295c-1.2373962 -0.99412537 -2.5891418 -1.788559 -4.055176 -2.3833313c-1.4660339 -0.6032715 -2.921997 -1.1385651 -4.367859 -1.605896c-1.1163635 -0.36535645 -2.1419373 -0.6797333 -3.0766907 -0.9431305c-0.92803955 -0.26339722 -1.7451477 -0.5480499 -2.4512634 -0.8539276c-0.69940186 -0.31437683 -1.2340088 -0.7179718 -1.6039124 -1.2107849c-0.36987305 -0.50131226 -0.5548096 -1.1683044 -0.5548096 -2.0009918c0 -1.2065277 0.35980225 -2.043457 1.0793762 -2.510788c0.72628784 -0.46731567 1.83255 -0.7009735 3.3187866 -0.7009735c0.94821167 0 1.7922058 0.0637207 2.531952 0.19117737c0.6267395 0.10700989 1.2084656 0.25294495 1.7451172 0.43782043l0 0l0 4.9278717l9.421692 0l0 -9.393158c-0.3765869 -0.26339722 -1.143219 -0.64151 -2.2999268 -1.1343079c-1.1567078 -0.50131226 -2.6866455 -0.96014404 -4.589813 -1.3764801c-1.8964233 -0.41633606 -4.1862793 -0.6245117 -6.869568 -0.6245117z" fill-rule="evenodd"/><path stroke="#595959" stroke-width="1.0" stroke-linejoin="round" stroke-linecap="butt" d="m428.46335 155.2799c-1.8561096 0 -3.621399 0.5098114 -5.295929 1.529419c-1.67453 1.0196075 -3.1741943 2.417328 -4.4990234 4.1931458c-0.8718567 1.1746368 -1.6363525 2.4626617 -2.2934265 3.8640747l0 0l-0.6722717 -8.719971l-15.7465515 0l0 6.971588l0.4942932 0.15293884c0.49765015 0.15293884 0.90112305 0.3101349 1.2104797 0.47157288c0.3093567 0.15293884 0.53463745 0.34835815 0.6758728 0.5862732c0.14794922 0.23791504 0.22192383 0.56503296 0.22192383 0.981369l0 23.565735c0 1.4104614 -0.2185669 2.3663483 -0.6557007 2.8676605c-0.4303894 0.4928131 -1.0390015 0.73921204 -1.8258362 0.73921204l-0.121032715 0l0 6.181381l18.90393 0l0 -6.181381l-0.25219727 0c-0.20175171 0 -0.42703247 -0.012741089 -0.6758728 -0.038238525c-0.24880981 -0.033981323 -0.4673767 -0.10195923 -0.65567017 -0.20391846c-0.18157959 -0.10195923 -0.27236938 -0.23365784 -0.27236938 -0.39509583l0 -21.422363l0 0c0.24032593 -0.49246216 0.475708 -0.9435272 0.7061157 -1.3531799c0.7666626 -1.3594818 1.4996643 -2.336609 2.1990662 -2.931366c0.70614624 -0.6032715 1.3685303 -0.9049072 1.9872437 -0.9049072c0.5783386 0 1.0322876 0.15718079 1.3618164 0.47157288c0.3295288 0.3058777 0.5548096 0.7349701 0.6758423 1.2872467c0.1277771 0.5437927 0.19168091 1.2362823 0.19168091 2.0774536l0 22.775543c0 0.16143799 -0.08407593 0.2931366 -0.25219727 0.39509583c-0.16140747 0.10195923 -0.3765869 0.16993713 -0.64559937 0.20391846c-0.26898193 0.025497437 -0.52789307 0.038238525 -0.7767334 0.038238525l-0.18157959 0l0 6.181381l18.217987 0l0 -6.181381l-0.18157959 0c-0.20846558 0 -0.4472046 -0.012741089 -0.71621704 -0.038238525c-0.26898193 -0.033981323 -0.49765015 -0.10195923 -0.6859436 -0.20391846c-0.18157959 -0.10195923 -0.27236938 -0.23365784 -0.27236938 -0.39509583l0 -21.467987l0 0c0.21936035 -0.42710876 0.4345703 -0.8247223 0.64559937 -1.1928406c0.7666626 -1.3339996 1.4895935 -2.3238678 2.1688232 -2.9696198c0.6859436 -0.6542511 1.3786011 -0.981369 2.078003 -0.981369c0.57836914 0 1.0222168 0.15718079 1.331543 0.47157288c0.3093567 0.3058777 0.53463745 0.7349701 0.6758728 1.2872467c0.14794922 0.5437927 0.22192383 1.2362823 0.22192383 2.0774536l0 22.775543c0 0.16143799 -0.09414673 0.2931366 -0.2824402 0.39509583c-0.18157959 0.10195923 -0.39678955 0.16993713 -0.64559937 0.20391846c-0.24884033 0.025497437 -0.51782227 0.038238525 -0.80700684 0.038238525l-0.121032715 0l0 6.181381l18.9039 0l0 -6.181381l-0.18157959 0c-0.74645996 0 -1.3382568 -0.24639893 -1.7753906 -0.73921204c-0.4303894 -0.50131226 -0.64559937 -1.4571991 -0.64559937 -2.8676605l0 -20.124542c0 -2.922882 -0.3934021 -5.3741913 -1.1802368 -7.353943c-0.78009033 -1.9882355 -1.9266968 -3.5049133 -3.4398193 -4.550003c-1.5063782 -1.045105 -3.3322144 -1.5676575 -5.4775085 -1.5676575c-1.862793 0 -3.6314697 0.4970703 -5.3059998 1.4911804c-1.67453 0.99412537 -3.1741943 2.3790894 -4.4990234 4.154907c-0.76474 1.0253906 -1.4468689 2.1408844 -2.0463562 3.3464508l0 0c-0.19866943 -1.0488739 -0.47485352 -2.0071716 -0.82855225 -2.874878c-0.80700684 -1.9882355 -1.9637146 -3.5049133 -3.4700928 -4.550003c-1.5064087 -1.045105 -3.3356018 -1.5676575 -5.4875793 -1.5676575z" fill-rule="evenodd"/><path stroke="#595959" stroke-width="1.0" stroke-linejoin="round" stroke-linecap="butt" d="m485.60666 164.6858c1.0356445 0 1.913269 0.3653717 2.632843 1.0960846c0.6586609 0.6626892 1.3311462 1.6153717 2.0174866 2.8580627l0 0l0 16.452408l0 0c-0.07525635 0.14324951 -0.14923096 0.2829132 -0.22192383 0.41897583c-0.8876953 1.6653748 -1.7148743 2.8506622 -2.4815063 3.555893c-0.75994873 0.7052307 -1.6140137 1.0578461 -2.5622253 1.0578461c-0.8675232 0 -1.5803833 -0.23365784 -2.1385498 -0.7009735c-0.5581665 -0.46733093 -1.0020142 -1.1980438 -1.331543 -2.1921692c-0.3295288 -0.9941101 -0.5581665 -2.2473907 -0.6859436 -3.7598114c-0.12106323 -1.5124207 -0.18157959 -3.3392181 -0.18157959 -5.4804077c0 -2.192154 0.08068848 -4.1209106 0.24209595 -5.7862854c0.16812134 -1.6738586 0.4472046 -3.0588226 0.83724976 -4.154907c0.39678955 -1.0960846 0.9146118 -1.9287567 1.5534668 -2.4980469c0.6388855 -0.57777405 1.412262 -0.8666687 2.3201294 -0.8666687zm1.9872437 -25.375534l0 6.729431l0.37322998 0.16567993c0.49093628 0.20391846 0.90115356 0.38659668 1.2306824 0.54803467c0.33624268 0.1529541 0.5951538 0.33563232 0.7767334 0.5480499c0.18829346 0.20391846 0.2824402 0.51405334 0.2824402 0.9303894l0 12.657288l0 0c-1.0796814 -1.7323303 -2.3607788 -3.0667877 -3.8433228 -4.0033417c-1.6072693 -1.0196228 -3.4667358 -1.529419 -5.578369 -1.529419c-3.0531616 0 -5.7061462 0.981369 -7.959015 2.9441223c-2.2528687 1.9542542 -3.991272 4.6434784 -5.2152405 8.067657c-1.2172241 3.4156952 -1.8258362 7.290222 -1.8258362 11.62355c0 4.2313843 0.558197 7.9657135 1.67453 11.202972c1.1163635 3.237259 2.7370605 5.769287 4.862152 7.5960846c2.131836 1.8268127 4.747864 2.7402039 7.848053 2.7402039c2.2730408 0 4.203125 -0.56077576 5.790222 -1.6823578c1.593811 -1.1300659 2.9690857 -2.7614288 4.125763 -4.8941193c0.32235718 -0.59669495 0.6365967 -1.2280121 0.942749 -1.8939819l0 0l0.67126465 7.6037903l15.554871 0l0 -6.729416l-0.43374634 -0.16569519c-0.7464905 -0.25489807 -1.2844849 -0.50131226 -1.6140137 -0.73921204c-0.3295288 -0.23789978 -0.4942627 -0.6669922 -0.4942627 -1.287262l0 -50.43245z" fill-rule="evenodd"/><path stroke="#595959" stroke-width="1.0" stroke-linejoin="round" stroke-linecap="butt" d="m531.03595 178.96715l0 8.9809265l0 0c-0.35681152 0.6981201 -0.70648193 1.296341 -1.0490723 1.7946472c-0.57836914 0.8326874 -1.1466675 1.444458 -1.704834 1.8352966c-0.5581665 0.39085388 -1.1466064 0.58628845 -1.7652588 0.58628845c-0.6657715 0 -1.2374268 -0.14445496 -1.7149048 -0.43333435c-0.47076416 -0.28889465 -0.8204346 -0.78170776 -1.0490723 -1.4784393c-0.22192383 -0.7052307 -0.33288574 -1.686615 -0.33288574 -2.9441223c0 -0.73072815 0.06048584 -1.4487 0.18157959 -2.1539307c0.121032715 -0.7052307 0.34631348 -1.3552246 0.6758423 -1.949997c0.33624268 -0.6032715 0.8137207 -1.1768036 1.4324341 -1.7205963c0.6187134 -0.55229187 1.4223022 -1.0493469 2.4108887 -1.4911804c0.81915283 -0.370636 1.7908936 -0.7124939 2.9152832 -1.0255585zm-2.4108887 -23.68724c-2.979187 0 -5.5649414 0.32713318 -7.757263 0.9813843c-2.185669 0.65423584 -3.9812012 1.3977051 -5.3867188 2.2303925c-1.4055176 0.8326721 -2.4378052 1.5124207 -3.0968628 2.039215l0 10.183365l10.965088 0l0 -7.289398l0 0c1.0048218 -0.467865 2.2456055 -0.7017975 3.72229 -0.7017975c1.116333 0 1.9536133 0.15718079 2.5117798 0.47155762c0.5581665 0.3143921 0.93811035 0.7604675 1.1398926 1.3382416c0.20843506 0.56929016 0.3126831 1.1938019 0.3126831 1.8735352l0 6.7859344l0 0c-3.565857 0.64711 -6.6257324 1.3759766 -9.179626 2.1866302c-2.7235718 0.8581848 -4.9327393 1.8607941 -6.6274414 3.0078583c-1.6879883 1.147049 -2.925354 2.5320282 -3.7121887 4.154907c-0.7868347 1.6143799 -1.1802368 3.568634 -1.1802368 5.8627625c0 2.60849 0.3833313 4.724182 1.1499634 6.347061c0.7666321 1.6143799 1.9536438 2.816681 3.5608826 3.6068726c1.6140137 0.78170776 3.6382446 1.1725464 6.072632 1.1725464c1.9031982 0 3.5474854 -0.31437683 4.9328003 -0.9431305c1.385376 -0.6287689 2.5823975 -1.6186371 3.5911255 -2.9696198c0.74780273 -1.0010986 1.442688 -2.2717285 2.0847168 -3.8118896l0 0l0.6086426 6.857971l15.373291 0l0 -6.729416l-0.4942627 -0.16569519c-0.49761963 -0.20391846 -0.90112305 -0.3695984 -1.2105103 -0.49705505c-0.30932617 -0.13594055 -0.53796387 -0.31863403 -0.6859131 -0.54803467c-0.14123535 -0.23791504 -0.21185303 -0.56503296 -0.21185303 -0.9813843l0 -20.21376c0 -2.3960876 -0.36315918 -4.4820404 -1.0894165 -6.2578583c-0.7196045 -1.7758179 -1.7821655 -3.25 -3.187683 -4.4225616c-1.4055176 -1.1725464 -3.1304932 -2.0604553 -5.1748657 -2.6637268c-2.0443726 -0.6032715 -4.3880615 -0.9049072 -7.030945 -0.9049072z" fill-rule="evenodd"/><path stroke="#595959" stroke-width="1.0" stroke-linejoin="round" stroke-linecap="butt" d="m553.96643 144.24263l0 8.220612c0 1.1980438 -0.18493652 2.0859528 -0.5548096 2.6637268c-0.36987305 0.57777405 -0.8776245 0.9601288 -1.5231934 1.1470642c-0.638855 0.17843628 -1.3920898 0.26763916 -2.2595825 0.26763916l-0.37322998 0l0 6.958847l4.2770996 0l0 22.316711c0 3.5006561 0.59851074 6.2578583 1.7955322 8.271576c1.2037964 2.005249 2.8581543 3.4156952 4.9630737 4.2313843c2.1049194 0.80718994 4.562866 1.2107849 7.3739014 1.2107849c1.3651733 0 2.6260986 -0.080718994 3.782837 -0.24215698c1.1566772 -0.15293884 2.1687622 -0.34835815 3.036316 -0.5862732c0.8674927 -0.23789978 1.5299072 -0.43333435 1.9872437 -0.5862732l0 -7.9147186c-0.24884033 0 -0.7565918 0.09346008 -1.5232544 0.2803955c-0.76660156 0.17842102 -1.6038818 0.26763916 -2.5117798 0.26763916c-0.94818115 0 -1.7417603 -0.15293884 -2.3806152 -0.45881653c-0.638855 -0.31437683 -1.1365356 -0.9006653 -1.4929199 -1.7588348c-0.34973145 -0.8666687 -0.52459717 -2.107193 -0.52459717 -3.7215729l0 -21.309845l8.735779 0l0 -7.353943l-8.735779 0l0 -11.903946z" fill-rule="evenodd"/><path stroke="#595959" stroke-width="1.0" stroke-linejoin="round" stroke-linecap="butt" d="m598.78174 163.02895c1.2374268 0 2.2058105 0.4588318 2.9052124 1.3764801c0.7061157 0.9176483 1.2037964 2.434311 1.4929199 4.550003c0.28918457 2.107193 0.43377686 4.936615 0.43377686 8.488251c0 3.5516357 -0.14459229 6.398056 -0.43377686 8.53923c-0.28912354 2.1411896 -0.7868042 3.6960907 -1.4929199 4.6647186c-0.69940186 0.9601288 -1.6677856 1.4402008 -2.9052124 1.4402008c-1.2373657 0 -2.1990356 -0.48007202 -2.8850098 -1.4402008c-0.6791992 -0.9686279 -1.1633911 -2.523529 -1.4525757 -4.6647186c-0.28918457 -2.1411743 -0.43377686 -4.9875946 -0.43377686 -8.53923c0 -3.5516357 0.14459229 -6.3810577 0.43377686 -8.488251c0.28918457 -2.1156921 0.78344727 -3.6323547 1.4828491 -4.550003c0.7061157 -0.9176483 1.6577148 -1.3764801 2.8547363 -1.3764801zm0 -7.7490387c-3.140564 0 -5.9213257 0.5098114 -8.342346 1.529419c-2.4142456 1.0196075 -4.458618 2.4937897 -6.1331787 4.4225616c-1.6744995 1.9287567 -2.9454956 4.2653656 -3.8130493 7.0098114c-0.8674927 2.7444458 -1.3012695 5.837265 -1.3012695 9.278458c0 4.494766 0.76330566 8.399033 2.289856 11.712769c1.5332642 3.3137207 3.7559204 5.8712463 6.6677856 7.6725616c2.9119263 1.8013153 6.4559937 2.7019653 10.632202 2.7019653c4.2165527 0 7.7808228 -0.90065 10.692749 -2.7019653c2.9119263 -1.8013153 5.1210938 -4.358841 6.6274414 -7.6725616c1.5064087 -3.313736 2.2595825 -7.2180023 2.2595825 -11.712769c0 -3.4411926 -0.42364502 -6.5170135 -1.2709961 -9.227478c-0.8473511 -2.7189484 -2.1082764 -5.0555573 -3.7827759 -7.0098114c-1.6677856 -1.9627533 -3.72229 -3.4539337 -6.163452 -4.4735413c-2.4344482 -1.0196075 -5.221985 -1.529419 -8.362549 -1.529419z" fill-rule="evenodd"/><path stroke="#595959" stroke-width="1.0" stroke-linejoin="round" stroke-linecap="butt" d="m641.67017 163.02895c1.2373657 0 2.2057495 0.4588318 2.9051514 1.3764801c0.7061157 0.9176483 1.2037964 2.434311 1.492981 4.550003c0.28912354 2.107193 0.43371582 4.936615 0.43371582 8.488251c0 3.5516357 -0.14459229 6.398056 -0.43371582 8.53923c-0.28918457 2.1411896 -0.78686523 3.6960907 -1.492981 4.6647186c-0.69940186 0.9601288 -1.6677856 1.4402008 -2.9051514 1.4402008c-1.2374268 0 -2.1990967 -0.48007202 -2.8850098 -1.4402008c-0.67926025 -0.9686279 -1.1634521 -2.523529 -1.4526367 -4.6647186c-0.28918457 -2.1411743 -0.43377686 -4.9875946 -0.43377686 -8.53923c0 -3.5516357 0.14459229 -6.3810577 0.43377686 -8.488251c0.28918457 -2.1156921 0.78344727 -3.6323547 1.4828491 -4.550003c0.7061157 -0.9176483 1.6577148 -1.3764801 2.8547974 -1.3764801zm0 -7.7490387c-3.140564 0 -5.9213867 0.5098114 -8.342346 1.529419c-2.4143066 1.0196075 -4.458679 2.4937897 -6.1331787 4.4225616c-1.6745605 1.9287567 -2.9455566 4.2653656 -3.8131104 7.0098114c-0.8674927 2.7444458 -1.3012695 5.837265 -1.3012695 9.278458c0 4.494766 0.76330566 8.399033 2.289856 11.712769c1.5333252 3.3137207 3.7559204 5.8712463 6.6678467 7.6725616c2.9119263 1.8013153 6.4559937 2.7019653 10.632202 2.7019653c4.2165527 0 7.7807617 -0.90065 10.692688 -2.7019653c2.9119263 -1.8013153 5.1210938 -4.358841 6.6275024 -7.6725616c1.5064087 -3.313736 2.2595825 -7.2180023 2.2595825 -11.712769c0 -3.4411926 -0.42370605 -6.5170135 -1.2710571 -9.227478c-0.8473511 -2.7189484 -2.1082764 -5.0555573 -3.7827759 -7.0098114c-1.6677856 -1.9627533 -3.72229 -3.4539337 -6.163452 -4.4735413c-2.4344482 -1.0196075 -5.221924 -1.529419 -8.362488 -1.529419z" fill-rule="evenodd"/><path stroke="#595959" stroke-width="1.0" stroke-linejoin="round" stroke-linecap="butt" d="m664.72363 139.31027l0 6.729431l0.49432373 0.16567993c0.4572754 0.15293884 0.850708 0.3101349 1.1802368 0.47157288c0.32946777 0.15293884 0.5648804 0.34835815 0.7061157 0.5862732c0.14794922 0.2294159 0.22192383 0.55229187 0.22192383 0.9686279l0 40.644196c0 1.4104614 -0.2185669 2.3663483 -0.6557007 2.8676605c-0.43041992 0.4928131 -1.0390015 0.73921204 -1.8258667 0.73921204l-0.121032715 0l0 6.181381l19.65039 0l0 -6.181381l-0.13110352 0c-0.7397461 0 -1.3383179 -0.24639893 -1.7955933 -0.73921204c-0.45056152 -0.50131226 -0.6758423 -1.4571991 -0.6758423 -2.8676605l0 -49.56578z" fill-rule="evenodd"/><path stroke="#595959" stroke-width="1.0" stroke-linejoin="round" stroke-linecap="butt" d="m705.07355 155.12697c-3.2213135 0 -6.072693 0.48431396 -8.554199 1.4529419c-2.4815063 0.9601288 -4.425049 2.4980469 -5.8305664 4.613739c-1.4055176 2.1156921 -2.1082764 4.9238586 -2.1082764 8.42453c0 2.3960724 0.3395996 4.3928223 1.0188599 5.990204c0.6859131 1.5888977 1.6072388 2.8549042 2.763977 3.79805c1.1566772 0.9346466 2.4276733 1.6908569 3.8130493 2.268631c1.385315 0.5692749 2.7807617 1.062088 4.1862793 1.4784393c0.9885864 0.31437683 1.9266968 0.59051514 2.814392 0.8284302c0.8876953 0.23789978 1.6812744 0.5395355 2.3806763 0.9049072c0.7061157 0.36535645 1.2542114 0.824173 1.6442261 1.3764648c0.39678955 0.5437927 0.5951538 1.2830048 0.5951538 2.2176514c0 0.99412537 -0.16473389 1.8055573 -0.4942627 2.4343262c-0.3295288 0.6202545 -0.8473511 1.062088 -1.5534668 1.3254852c-0.69940186 0.26339722 -1.6274414 0.39509583 -2.7841187 0.39509583c-1.116333 0 -2.128479 -0.07646179 -3.036377 -0.22940063c-0.7765503 -0.13809204 -1.4793091 -0.32281494 -2.1082764 -0.55415344l0 0l0 -6.188019l-9.6032715 0l0 10.4127655c0.57836914 0.36535645 1.5266113 0.8369293 2.8446655 1.4147034c1.3248291 0.5692749 2.9892578 1.062088 4.993347 1.4784393c2.0040283 0.4248352 4.243408 0.6372528 6.7182007 0.6372528c4.09552 0 7.494995 -0.5352936 10.198486 -1.6058807c2.710144 -1.0706024 4.7141724 -2.752945 6.012085 -5.0470734c1.3046875 -2.3026123 1.9569702 -5.3062134 1.9569702 -9.010803c0 -2.2941284 -0.37322998 -4.222885 -1.11969 -5.7862854c-0.74645996 -1.5718994 -1.7384033 -2.8549194 -2.975769 -3.8490295c-1.2374268 -0.99412537 -2.5891113 -1.788559 -4.055176 -2.3833313c-1.4660645 -0.6032715 -2.922058 -1.1385651 -4.36792 -1.605896c-1.116333 -0.36535645 -2.1418457 -0.6797333 -3.0766602 -0.9431305c-0.92803955 -0.26339722 -1.7451172 -0.5480499 -2.451233 -0.8539276c-0.69940186 -0.31437683 -1.2340698 -0.7179718 -1.6039429 -1.2107849c-0.36987305 -0.50131226 -0.5548096 -1.1683044 -0.5548096 -2.0009918c0 -1.2065277 0.35980225 -2.043457 1.0794067 -2.510788c0.7262573 -0.46731567 1.8325195 -0.7009735 3.3187256 -0.7009735c0.9482422 0 1.7922363 0.0637207 2.5319824 0.19117737c0.62677 0.10700989 1.208435 0.25294495 1.7451172 0.43782043l0 0l0 4.9278717l9.421692 0l0 -9.393158c-0.3765869 -0.26339722 -1.1432495 -0.64151 -2.2999268 -1.1343079c-1.1566772 -0.50131226 -2.6865845 -0.96014404 -4.5897827 -1.3764801c-1.8964844 -0.41633606 -4.1863403 -0.6245117 -6.869568 -0.6245117z" fill-rule="evenodd"/></g></g><path fill="#ffffff" d="m302.0 314.90106l0 0c0 6.010315 39.84665 10.88266 89.0 10.88266c49.15335 0 89.0 -4.872345 89.0 -10.88266l0 0c0 -6.0103455 39.84668 -10.88269 89.0 -10.88269c49.15332 0 89.0 4.872345 89.0 10.88269l0 87.0614c0 -6.0103455 -39.84668 -10.88266 -89.0 -10.88266c-49.15332 0 -89.0 4.8723145 -89.0 10.88266c0 6.0103455 -39.84665 10.88269 -89.0 10.88269c-49.15335 0 -89.0 -4.872345 -89.0 -10.88269z" fill-rule="evenodd"/><path stroke="#000000" stroke-width="1.0" stroke-linejoin="round" stroke-linecap="butt" d="m302.0 314.90106l0 0c0 6.010315 39.84665 10.88266 89.0 10.88266c49.15335 0 89.0 -4.872345 89.0 -10.88266l0 0c0 -6.0103455 39.84668 -10.88269 89.0 -10.88269c49.15332 0 89.0 4.872345 89.0 10.88269l0 87.0614c0 -6.0103455 -39.84668 -10.88266 -89.0 -10.88266c-49.15332 0 -89.0 4.8723145 -89.0 10.88266c0 6.0103455 -39.84665 10.88269 -89.0 10.88269c-49.15335 0 -89.0 -4.872345 -89.0 -10.88269z" fill-rule="evenodd"/><path fill="#000000" d="m361.027 334.348l0 18.84375l-5.0 0l0.46875 -12.5625l-1.21875 12.5625l-3.703125 0l-1.3125 -12.28125l0.46875 12.28125l-5.015625 0l0 -18.84375l6.890625 0q0.34375 2.015625 0.640625 4.203125l0.1875 4.625l0.640625 -8.828125l6.953125 0zm6.349304 0l0 3.265625l-5.546875 0l0 -3.265625l5.546875 0zm0 3.21875l0 15.625l-5.546875 0l0 -15.625l5.546875 0zm10.721771 5.640625l-4.890625 0l0 -1.265625q0 -0.921875 -0.046875 -1.0q-0.03125 -0.09375 -0.1875 -0.09375q-0.140625 0 -0.21875 0.09375q-0.0625 0.09375 -0.0625 0.4375q0 0.609375 0.0625 0.8125q0.0625 0.203125 0.453125 0.53125q0.390625 0.3125 1.8125 1.0q2.046875 1.0 2.71875 1.9375q0.703125 0.96875 0.703125 2.71875q0 1.90625 -0.53125 2.953125q-0.515625 1.03125 -1.734375 1.578125q-1.21875 0.546875 -2.84375 0.546875q-1.796875 0 -3.140625 -0.578125q-1.328125 -0.59375 -1.84375 -1.625q-0.515625 -1.03125 -0.515625 -2.984375l0 -1.171875l4.890625 0l0 1.40625q0 1.078125 0.0625 1.25q0.078125 0.171875 0.203125 0.171875q0.25 0 0.3125 -0.078125q0.078125 -0.09375 0.078125 -0.703125q0 -0.859375 -0.125 -0.984375q-0.203125 -0.21875 -2.484375 -1.484375q-2.09375 -1.1875 -2.578125 -2.203125q-0.484375 -1.015625 -0.484375 -2.359375q0 -1.890625 0.53125 -2.84375q0.53125 -0.953125 1.765625 -1.453125q1.234375 -0.515625 2.796875 -0.515625q1.53125 0 2.640625 0.40625q1.125 0.40625 1.75 1.109375q0.640625 0.703125 0.765625 1.3125q0.140625 0.59375 0.140625 1.75l0 1.328125zm10.664368 0l-4.890625 0l0 -1.265625q0 -0.921875 -0.046875 -1.0q-0.03125 -0.09375 -0.1875 -0.09375q-0.140625 0 -0.21875 0.09375q-0.0625 0.09375 -0.0625 0.4375q0 0.609375 0.0625 0.8125q0.0625 0.203125 0.453125 0.53125q0.390625 0.3125 1.8125 1.0q2.046875 1.0 2.71875 1.9375q0.703125 0.96875 0.703125 2.71875q0 1.90625 -0.53125 2.953125q-0.515625 1.03125 -1.734375 1.578125q-1.21875 0.546875 -2.84375 0.546875q-1.796875 0 -3.140625 -0.578125q-1.328125 -0.59375 -1.84375 -1.625q-0.515625 -1.03125 -0.515625 -2.984375l0 -1.171875l4.890625 0l0 1.40625q0 1.078125 0.0625 1.25q0.078125 0.171875 0.203125 0.171875q0.25 0 0.3125 -0.078125q0.078125 -0.09375 0.078125 -0.703125q0 -0.859375 -0.125 -0.984375q-0.203125 -0.21875 -2.484375 -1.484375q-2.09375 -1.1875 -2.578125 -2.203125q-0.484375 -1.015625 -0.484375 -2.359375q0 -1.890625 0.53125 -2.84375q0.53125 -0.953125 1.765625 -1.453125q1.234375 -0.515625 2.796875 -0.515625q1.53125 0 2.640625 0.40625q1.125 0.40625 1.75 1.109375q0.640625 0.703125 0.765625 1.3125q0.140625 0.59375 0.140625 1.75l0 1.328125zm6.1487427 -8.859375l0 3.265625l-5.546875 0l0 -3.265625l5.546875 0zm0 3.21875l0 15.625l-5.546875 0l0 -15.625l5.546875 0zm6.1748657 0l-0.296875 0.890625q-0.140625 -0.21875 0.671875 -0.6875q0.8125 -0.46875 1.859375 -0.46875q1.296875 0 2.15625 0.640625q0.859375 0.640625 1.09375 1.578125q0.25 0.921875 0.25 2.921875l0 10.75l-5.40625 0l0 -10.640625q0 -1.4375 -0.046875 -1.5625q-0.03125 -0.140625 -0.140625 -0.140625q-0.125 0 -0.1875 0.1875q-0.0625 0.1875 -0.0625 1.765625l0 10.390625l-5.40625 0l0 -15.625l5.515625 0zm17.426208 0l0 11.78125q0 2.328125 -0.125 3.078125q-0.125 0.75 -0.859375 1.59375q-0.71875 0.859375 -1.953125 1.28125q-1.234375 0.421875 -3.046875 0.421875q-2.265625 0 -3.734375 -0.828125q-1.46875 -0.8125 -1.53125 -3.6875l5.296875 0q0 0.984375 0.234375 0.984375q0.234375 0 0.296875 -0.125q0.078125 -0.125 0.078125 -0.953125l0.125 -0.328125q0.015625 0.140625 -0.703125 0.4375q-0.703125 0.296875 -1.5 0.296875q-1.34375 0 -2.25 -0.5625q-0.90625 -0.5625 -1.234375 -1.46875q-0.328125 -0.90625 -0.328125 -2.453125l0 -5.328125q0 -2.265625 0.875 -3.328125q0.890625 -1.078125 2.640625 -1.078125q0.953125 0 1.734375 0.390625q0.78125 0.390625 0.84375 0.484375l0.171875 -0.609375l4.96875 0zm-5.421875 4.375q0 -0.921875 -0.046875 -1.0q-0.03125 -0.09375 -0.109375 -0.09375q-0.09375 0 -0.171875 0.140625q-0.0625 0.125 -0.0625 0.953125l0 4.921875q0 0.890625 0.03125 1.0q0.046875 0.109375 0.125 0.109375q0.109375 0 0.171875 -0.15625q0.0625 -0.15625 0.0625 -1.328125l0 -4.546875zm10.195221 -7.59375l3.953125 0q3.4375 0 4.734375 0.328125q1.296875 0.328125 2.0 1.15625q0.703125 0.8125 0.875 1.765625q0.171875 0.9375 0.171875 3.53125l0 6.265625q0 2.484375 -0.265625 3.40625q-0.25 0.90625 -0.921875 1.453125q-0.65625 0.546875 -1.578125 0.75q-0.90625 0.1875 -2.625 0.1875l-6.34375 0l0 -18.84375zm5.609375 4.0l0 10.84375q0.265625 0 0.390625 -0.234375q0.140625 -0.234375 0.140625 -1.90625l0 -6.953125q0 -1.171875 -0.046875 -1.375q-0.046875 -0.21875 -0.1875 -0.296875q-0.140625 -0.078125 -0.296875 -0.078125zm11.726013 5.84375l-5.140625 0l0 -1.453125q0 -1.796875 0.4375 -2.828125q0.453125 -1.046875 1.75 -1.828125q1.3125 -0.78125 3.328125 -0.78125q2.40625 0 3.6875 0.90625q1.296875 0.890625 1.546875 2.1875q0.265625 1.28125 0.265625 4.953125l0 7.84375l-5.28125 0l0.25 -0.890625q0.171875 0.234375 -0.59375 0.703125q-0.765625 0.453125 -1.78125 0.453125q-1.3125 0 -2.46875 -0.765625q-1.140625 -0.765625 -1.140625 -3.25l0 -1.203125q0 -1.8125 0.609375 -2.515625q0.625 -0.71875 2.78125 -1.5625q2.046875 -0.796875 2.125 -0.953125q0.09375 -0.171875 0.09375 -0.984375q0 -1.046875 -0.09375 -1.203125q-0.078125 -0.171875 -0.171875 -0.171875q-0.125 0 -0.171875 0.09375q-0.03125 0.09375 -0.03125 1.25l0 2.0zm0.46875 2.484375q-0.1875 0.140625 -0.328125 0.5625q-0.140625 0.421875 -0.140625 1.34375q0 1.046875 0.0625 1.203125q0.078125 0.140625 0.203125 0.140625q0.125 0 0.15625 -0.078125q0.046875 -0.09375 0.046875 -1.078125l0 -2.09375zm11.666626 -11.0625l0 2.3125l1.203125 0l0 3.265625l-1.203125 0l0 7.375q0 1.265625 0.015625 1.296875q0.015625 0.015625 1.375 0.015625l0 3.3125l-2.28125 0q-1.5625 0 -2.3125 -0.140625q-0.734375 -0.140625 -1.34375 -0.703125q-0.609375 -0.5625 -0.75 -1.25q-0.125 -0.6875 -0.125 -2.921875l0 -6.984375l-0.96875 0l0 -3.265625l0.96875 0l0 -2.3125l5.421875 0zm6.184326 8.578125l-5.140625 0l0 -1.453125q0 -1.796875 0.4375 -2.828125q0.453125 -1.046875 1.75 -1.828125q1.3125 -0.78125 3.328125 -0.78125q2.40625 0 3.6875 0.90625q1.296875 0.890625 1.546875 2.1875q0.265625 1.28125 0.265625 4.953125l0 7.84375l-5.28125 0l0.25 -0.890625q0.171875 0.234375 -0.59375 0.703125q-0.765625 0.453125 -1.78125 0.453125q-1.3125 0 -2.46875 -0.765625q-1.140625 -0.765625 -1.140625 -3.25l0 -1.203125q0 -1.8125 0.609375 -2.515625q0.625 -0.71875 2.78125 -1.5625q2.046875 -0.796875 2.125 -0.953125q0.09375 -0.171875 0.09375 -0.984375q0 -1.046875 -0.09375 -1.203125q-0.078125 -0.171875 -0.171875 -0.171875q-0.125 0 -0.171875 0.09375q-0.03125 0.09375 -0.03125 1.25l0 2.0zm0.46875 2.484375q-0.1875 0.140625 -0.328125 0.5625q-0.140625 0.421875 -0.140625 1.34375q0 1.046875 0.0625 1.203125q0.078125 0.140625 0.203125 0.140625q0.125 0 0.15625 -0.078125q0.046875 -0.09375 0.046875 -1.078125l0 -2.09375zm15.738373 -12.328125l0 18.84375l-5.609375 0l0 -18.84375l5.609375 0zm6.1519165 3.21875l-0.25 0.921875q-0.125 -0.21875 0.703125 -0.703125q0.828125 -0.484375 1.875 -0.484375q2.046875 0 2.828125 1.28125q0.21875 -0.3125 1.03125 -0.796875q0.8125 -0.484375 1.796875 -0.484375q1.296875 0 2.171875 0.65625q0.875 0.640625 1.109375 1.5625q0.25 0.90625 0.25 2.765625l0 10.90625l-5.28125 0l0 -10.03125q0 -1.828125 -0.078125 -2.0625q-0.0625 -0.25 -0.171875 -0.25q-0.125 0 -0.203125 0.25q-0.078125 0.25 -0.078125 2.0625l0 10.03125l-5.28125 0l0 -9.796875q0 -2.109375 -0.0625 -2.328125q-0.046875 -0.21875 -0.15625 -0.21875q-0.09375 0 -0.1875 0.09375q-0.078125 0.078125 -0.09375 0.328125q0 0.234375 0 1.28125l0 10.640625l-5.28125 0l0 -15.625l5.359375 0zm17.624146 0l-0.21875 0.796875q-0.078125 -0.171875 0.734375 -0.609375q0.8125 -0.453125 1.796875 -0.453125q1.1875 0 2.0625 0.65625q0.890625 0.65625 1.109375 1.5q0.21875 0.828125 0.21875 2.640625l0 6.1875q0 2.0625 -0.265625 3.03125q-0.265625 0.96875 -1.140625 1.5625q-0.859375 0.578125 -2.046875 0.578125q-0.953125 0 -1.75 -0.4375q-0.796875 -0.453125 -0.75 -0.609375l0.140625 2.875l-5.40625 0l0 -17.71875l5.515625 0zm0.296875 4.75q0 -1.28125 -0.03125 -1.375q-0.03125 -0.09375 -0.140625 -0.09375q-0.125 0 -0.1875 0.140625q-0.046875 0.140625 -0.046875 1.328125l0 6.078125q0 1.234375 0.046875 1.390625q0.0625 0.140625 0.1875 0.140625q0.09375 0 0.125 -0.109375q0.046875 -0.109375 0.046875 -1.203125l0 -6.296875zm17.118958 -4.75l0 15.625l-5.515625 0l0.296875 -0.8125q0.140625 0.234375 -0.640625 0.65625q-0.78125 0.421875 -1.796875 0.421875q-1.109375 0 -1.890625 -0.40625q-0.78125 -0.421875 -1.15625 -1.109375q-0.359375 -0.6875 -0.453125 -1.375q-0.078125 -0.703125 -0.078125 -2.625l0 -10.375l5.40625 0l0 10.46875q0 1.640625 0.03125 1.765625q0.046875 0.125 0.171875 0.125q0.140625 0 0.171875 -0.125q0.046875 -0.140625 0.046875 -1.875l0 -10.359375l5.40625 0zm6.32135 -1.953125l0 2.3125l1.203125 0l0 3.265625l-1.203125 0l0 7.375q0 1.265625 0.015625 1.296875q0.015625 0.015625 1.375 0.015625l0 3.3125l-2.28125 0q-1.5625 0 -2.3125 -0.140625q-0.734375 -0.140625 -1.34375 -0.703125q-0.609375 -0.5625 -0.75 -1.25q-0.125 -0.6875 -0.125 -2.921875l0 -6.984375l-0.96875 0l0 -3.265625l0.96875 0l0 -2.3125l5.421875 0zm6.184326 8.578125l-5.140625 0l0 -1.453125q0 -1.796875 0.4375 -2.828125q0.453125 -1.046875 1.75 -1.828125q1.3125 -0.78125 3.328125 -0.78125q2.40625 0 3.6875 0.90625q1.296875 0.890625 1.546875 2.1875q0.265625 1.28125 0.265625 4.953125l0 7.84375l-5.28125 0l0.25 -0.890625q0.171875 0.234375 -0.59375 0.703125q-0.765625 0.453125 -1.78125 0.453125q-1.3125 0 -2.46875 -0.765625q-1.140625 -0.765625 -1.140625 -3.25l0 -1.203125q0 -1.8125 0.609375 -2.515625q0.625 -0.71875 2.78125 -1.5625q2.046875 -0.796875 2.125 -0.953125q0.09375 -0.171875 0.09375 -0.984375q0 -1.046875 -0.09375 -1.203125q-0.078125 -0.171875 -0.171875 -0.171875q-0.125 0 -0.171875 0.09375q-0.03125 0.09375 -0.03125 1.25l0 2.0zm0.46875 2.484375q-0.1875 0.140625 -0.328125 0.5625q-0.140625 0.421875 -0.140625 1.34375q0 1.046875 0.0625 1.203125q0.078125 0.140625 0.203125 0.140625q0.125 0 0.15625 -0.078125q0.046875 -0.09375 0.046875 -1.078125l0 -2.09375zm11.666626 -11.0625l0 2.3125l1.203125 0l0 3.265625l-1.203125 0l0 7.375q0 1.265625 0.015625 1.296875q0.015625 0.015625 1.375 0.015625l0 3.3125l-2.28125 0q-1.5625 0 -2.3125 -0.140625q-0.734375 -0.140625 -1.34375 -0.703125q-0.609375 -0.5625 -0.75 -1.25q-0.125 -0.6875 -0.125 -2.921875l0 -6.984375l-0.96875 0l0 -3.265625l0.96875 0l0 -2.3125l5.421875 0zm6.793701 -1.265625l0 3.265625l-5.546875 0l0 -3.265625l5.546875 0zm0 3.21875l0 15.625l-5.546875 0l0 -15.625l5.546875 0zm11.706116 5.625l0 3.609375q0 2.015625 -0.21875 3.015625q-0.203125 1.0 -0.9375 1.90625q-0.734375 0.890625 -1.859375 1.3125q-1.125 0.421875 -2.53125 0.421875q-1.5625 0 -2.6875 -0.359375q-1.109375 -0.359375 -1.765625 -1.109375q-0.640625 -0.75 -0.921875 -1.765625q-0.265625 -1.015625 -0.265625 -2.9375l0 -3.765625q0 -2.140625 0.484375 -3.390625q0.5 -1.265625 1.765625 -2.046875q1.28125 -0.78125 3.203125 -0.78125q1.59375 0 2.765625 0.5q1.1875 0.484375 1.828125 1.296875q0.65625 0.796875 0.890625 1.640625q0.25 0.84375 0.25 2.453125zm-5.40625 -1.09375q0 -1.046875 -0.046875 -1.140625q-0.046875 -0.109375 -0.125 -0.109375q-0.09375 0 -0.140625 0.109375q-0.046875 0.109375 -0.046875 1.140625l0 6.625q0 0.9375 0.046875 1.078125q0.0625 0.125 0.125 0.125q0.09375 0 0.140625 -0.09375q0.046875 -0.109375 0.046875 -0.96875l0 -6.765625zm11.457581 -4.53125l-0.296875 0.890625q-0.140625 -0.21875 0.671875 -0.6875q0.8125 -0.46875 1.859375 -0.46875q1.296875 0 2.15625 0.640625q0.859375 0.640625 1.09375 1.578125q0.25 0.921875 0.25 2.921875l0 10.75l-5.40625 0l0 -10.640625q0 -1.4375 -0.046875 -1.5625q-0.03125 -0.140625 -0.140625 -0.140625q-0.125 0 -0.1875 0.1875q-0.0625 0.1875 -0.0625 1.765625l0 10.390625l-5.40625 0l0 -15.625l5.515625 0zm25.76355 0l-1.890625 15.625l-5.6875 0q-0.453125 -3.09375 -0.515625 -7.546875q0.296875 1.984375 -0.03125 3.96875l-0.546875 3.578125l-5.671875 0l-2.015625 -15.625l4.8125 0q0.078125 1.0 0.53125 8.875q-0.390625 -0.84375 0.578125 -8.875l4.546875 0l0.484375 8.875q-0.25 -3.71875 0.640625 -8.875l4.765625 0zm5.276245 -3.21875l0 3.265625l-5.546875 0l0 -3.265625l5.546875 0zm0 3.21875l0 15.625l-5.546875 0l0 -15.625l5.546875 0zm6.3154907 -1.953125l0 2.3125l1.203125 0l0 3.265625l-1.203125 0l0 7.375q0 1.265625 0.015625 1.296875q0.015625 0.015625 1.375 0.015625l0 3.3125l-2.28125 0q-1.5625 0 -2.3125 -0.140625q-0.734375 -0.140625 -1.34375 -0.703125q-0.609375 -0.5625 -0.75 -1.25q-0.125 -0.6875 -0.125 -2.921875l0 -6.984375l-0.96875 0l0 -3.265625l0.96875 0l0 -2.3125l5.421875 0zm6.653076 -1.265625l-0.125 3.703125q-0.015625 -0.15625 0.71875 -0.453125q0.75 -0.296875 1.609375 -0.296875q1.328125 0 2.28125 0.703125q0.96875 0.6875 1.171875 1.59375q0.203125 0.890625 0.203125 3.0l0 10.59375l-5.40625 0l0 -10.796875q0 -1.203125 -0.0625 -1.375q-0.046875 -0.171875 -0.15625 -0.171875q-0.09375 0 -0.171875 0.1875q-0.0625 0.171875 -0.0625 1.21875l0 10.9375l-5.40625 0l0 -18.84375l5.40625 0z" fill-rule="nonzero"/><path fill="#000000" d="m333.01093 361.34802l0 18.84375l-5.0 0l0.46875 -12.5625l-1.21875 12.5625l-3.703125 0l-1.3125 -12.28125l0.46875 12.28125l-5.015625 0l0 -18.84375l6.890625 0q0.34375 2.015625 0.640625 4.203125l0.1875 4.625l0.640625 -8.828125l6.953125 0zm11.974304 3.21875l0 15.625l-5.515625 0l0.296875 -0.8125q0.140625 0.234375 -0.640625 0.65625q-0.78125 0.421875 -1.796875 0.421875q-1.109375 0 -1.890625 -0.40625q-0.78125 -0.421875 -1.15625 -1.109375q-0.359375 -0.6875 -0.453125 -1.375q-0.078125 -0.703125 -0.078125 -2.625l0 -10.375l5.40625 0l0 10.46875q0 1.640625 0.03125 1.765625q0.046875 0.125 0.171875 0.125q0.140625 0 0.171875 -0.125q0.046875 -0.140625 0.046875 -1.875l0 -10.359375l5.40625 0zm6.2120056 -3.21875l0 18.84375l-5.546875 0l0 -18.84375l5.546875 0zm6.3155212 1.265625l0 2.3125l1.203125 0l0 3.265625l-1.203125 0l0 7.375q0 1.265625 0.015625 1.296875q0.015625 0.015625 1.375 0.015625l0 3.3125l-2.28125 0q-1.5625 0 -2.3125 -0.140625q-0.734375 -0.140625 -1.34375 -0.703125q-0.609375 -0.5625 -0.75 -1.25q-0.125 -0.6875 -0.125 -2.921875l0 -6.984375l-0.96875 0l0 -3.265625l0.96875 0l0 -2.3125l5.421875 0zm6.793701 -1.265625l0 3.265625l-5.546875 0l0 -3.265625l5.546875 0zm0 3.21875l0 15.625l-5.546875 0l0 -15.625l5.546875 0zm10.909241 0l-2.234375 15.625l-6.640625 0l-2.375 -15.625l4.953125 0l0.828125 11.1875q-0.328125 -1.21875 0.015625 -5.78125q0.203125 -2.578125 0.5 -5.40625l4.953125 0zm4.588562 6.625l-5.140625 0l0 -1.453125q0 -1.796875 0.4375 -2.828125q0.453125 -1.046875 1.75 -1.828125q1.3125 -0.78125 3.328125 -0.78125q2.40625 0 3.6875 0.90625q1.296875 0.890625 1.546875 2.1875q0.265625 1.28125 0.265625 4.953125l0 7.84375l-5.28125 0l0.25 -0.890625q0.171875 0.234375 -0.59375 0.703125q-0.765625 0.453125 -1.78125 0.453125q-1.3125 0 -2.46875 -0.765625q-1.140625 -0.765625 -1.140625 -3.25l0 -1.203125q0 -1.8125 0.609375 -2.515625q0.625 -0.71875 2.78125 -1.5625q2.046875 -0.796875 2.125 -0.953125q0.09375 -0.171875 0.09375 -0.984375q0 -1.046875 -0.09375 -1.203125q-0.078125 -0.171875 -0.171875 -0.171875q-0.125 0 -0.171875 0.09375q-0.03125 0.09375 -0.03125 1.25l0 2.0zm0.46875 2.484375q-0.1875 0.140625 -0.328125 0.5625q-0.140625 0.421875 -0.140625 1.34375q0 1.046875 0.0625 1.203125q0.078125 0.140625 0.203125 0.140625q0.125 0 0.15625 -0.078125q0.046875 -0.09375 0.046875 -1.078125l0 -2.09375zm11.463501 -9.109375l-0.6875 2.40625q0.65625 -2.53125 3.28125 -2.703125l0 6.140625q-1.5625 0 -2.0 0.25q-0.4375 0.25 -0.546875 0.71875q-0.09375 0.453125 -0.09375 2.546875l0 6.265625l-5.40625 0l0 -15.625l5.453125 0zm8.202637 -3.21875l0 3.265625l-5.546875 0l0 -3.265625l5.546875 0zm0 3.21875l0 15.625l-5.546875 0l0 -15.625l5.546875 0zm5.5967407 6.625l-5.140625 0l0 -1.453125q0 -1.796875 0.4375 -2.828125q0.453125 -1.046875 1.75 -1.828125q1.3125 -0.78125 3.328125 -0.78125q2.40625 0 3.6875 0.90625q1.296875 0.890625 1.546875 2.1875q0.265625 1.28125 0.265625 4.953125l0 7.84375l-5.28125 0l0.25 -0.890625q0.171875 0.234375 -0.59375 0.703125q-0.765625 0.453125 -1.78125 0.453125q-1.3125 0 -2.46875 -0.765625q-1.140625 -0.765625 -1.140625 -3.25l0 -1.203125q0 -1.8125 0.609375 -2.515625q0.625 -0.71875 2.78125 -1.5625q2.046875 -0.796875 2.125 -0.953125q0.09375 -0.171875 0.09375 -0.984375q0 -1.046875 -0.09375 -1.203125q-0.078125 -0.171875 -0.171875 -0.171875q-0.125 0 -0.171875 0.09375q-0.03125 0.09375 -0.03125 1.25l0 2.0zm0.46875 2.484375q-0.1875 0.140625 -0.328125 0.5625q-0.140625 0.421875 -0.140625 1.34375q0 1.046875 0.0625 1.203125q0.078125 0.140625 0.203125 0.140625q0.125 0 0.15625 -0.078125q0.046875 -0.09375 0.046875 -1.078125l0 -2.09375zm11.666626 -11.0625l0 2.3125l1.203125 0l0 3.265625l-1.203125 0l0 7.375q0 1.265625 0.015625 1.296875q0.015625 0.015625 1.375 0.015625l0 3.3125l-2.28125 0q-1.5625 0 -2.3125 -0.140625q-0.734375 -0.140625 -1.34375 -0.703125q-0.609375 -0.5625 -0.75 -1.25q-0.125 -0.6875 -0.125 -2.921875l0 -6.984375l-0.96875 0l0 -3.265625l0.96875 0l0 -2.3125l5.421875 0zm12.309326 10.5l-5.78125 0l0 2.703125q0 0.890625 0.046875 1.0q0.0625 0.109375 0.171875 0.109375q0.21875 0 0.296875 -0.1875q0.09375 -0.203125 0.09375 -1.203125l0 -2.40625l5.171875 0l0 1.546875q0 1.40625 -0.1875 2.21875q-0.1875 0.8125 -0.890625 1.734375q-0.703125 0.90625 -1.78125 1.375q-1.0625 0.453125 -2.609375 0.453125q-1.5 0 -2.6875 -0.4375q-1.1875 -0.453125 -1.859375 -1.25q-0.671875 -0.8125 -0.9375 -1.734375q-0.25 -0.9375 -0.25 -2.640625l0 -4.28125q0 -2.03125 0.578125 -3.265625q0.578125 -1.234375 1.890625 -1.890625q1.3125 -0.65625 2.953125 -0.65625q2.0 0 3.34375 0.796875q1.359375 0.78125 1.890625 2.078125q0.546875 1.296875 0.546875 3.515625l0 2.421875zm-5.421875 -3.328125l0 -0.609375q0 -1.046875 -0.0625 -1.1875q-0.046875 -0.140625 -0.09375 -0.140625q-0.125 0 -0.171875 0.09375q-0.03125 0.09375 -0.03125 1.234375l0 0.609375l0.359375 0zm10.060547 -8.4375l3.953125 0q3.4375 0 4.734375 0.328125q1.296875 0.328125 2.0 1.15625q0.703125 0.8125 0.875 1.765625q0.171875 0.9375 0.171875 3.53125l0 6.265625q0 2.484375 -0.265625 3.40625q-0.25 0.90625 -0.921875 1.453125q-0.65625 0.546875 -1.578125 0.75q-0.90625 0.1875 -2.625 0.1875l-6.34375 0l0 -18.84375zm5.609375 4.0l0 10.84375q0.265625 0 0.390625 -0.234375q0.140625 -0.234375 0.140625 -1.90625l0 -6.953125q0 -1.171875 -0.046875 -1.375q-0.046875 -0.21875 -0.1875 -0.296875q-0.140625 -0.078125 -0.296875 -0.078125zm11.726013 5.84375l-5.140625 0l0 -1.453125q0 -1.796875 0.4375 -2.828125q0.453125 -1.046875 1.75 -1.828125q1.3125 -0.78125 3.328125 -0.78125q2.40625 0 3.6875 0.90625q1.296875 0.890625 1.546875 2.1875q0.265625 1.28125 0.265625 4.953125l0 7.84375l-5.28125 0l0.25 -0.890625q0.171875 0.234375 -0.59375 0.703125q-0.765625 0.453125 -1.78125 0.453125q-1.3125 0 -2.46875 -0.765625q-1.140625 -0.765625 -1.140625 -3.25l0 -1.203125q0 -1.8125 0.609375 -2.515625q0.625 -0.71875 2.78125 -1.5625q2.046875 -0.796875 2.125 -0.953125q0.09375 -0.171875 0.09375 -0.984375q0 -1.046875 -0.09375 -1.203125q-0.078125 -0.171875 -0.171875 -0.171875q-0.125 0 -0.171875 0.09375q-0.03125 0.09375 -0.03125 1.25l0 2.0zm0.46875 2.484375q-0.1875 0.140625 -0.328125 0.5625q-0.140625 0.421875 -0.140625 1.34375q0 1.046875 0.0625 1.203125q0.078125 0.140625 0.203125 0.140625q0.125 0 0.15625 -0.078125q0.046875 -0.09375 0.046875 -1.078125l0 -2.09375zm11.666626 -11.0625l0 2.3125l1.203125 0l0 3.265625l-1.203125 0l0 7.375q0 1.265625 0.015625 1.296875q0.015625 0.015625 1.375 0.015625l0 3.3125l-2.28125 0q-1.5625 0 -2.3125 -0.140625q-0.734375 -0.140625 -1.34375 -0.703125q-0.609375 -0.5625 -0.75 -1.25q-0.125 -0.6875 -0.125 -2.921875l0 -6.984375l-0.96875 0l0 -3.265625l0.96875 0l0 -2.3125l5.421875 0zm6.184326 8.578125l-5.140625 0l0 -1.453125q0 -1.796875 0.4375 -2.828125q0.453125 -1.046875 1.75 -1.828125q1.3125 -0.78125 3.328125 -0.78125q2.40625 0 3.6875 0.90625q1.296875 0.890625 1.546875 2.1875q0.265625 1.28125 0.265625 4.953125l0 7.84375l-5.28125 0l0.25 -0.890625q0.171875 0.234375 -0.59375 0.703125q-0.765625 0.453125 -1.78125 0.453125q-1.3125 0 -2.46875 -0.765625q-1.140625 -0.765625 -1.140625 -3.25l0 -1.203125q0 -1.8125 0.609375 -2.515625q0.625 -0.71875 2.78125 -1.5625q2.046875 -0.796875 2.125 -0.953125q0.09375 -0.171875 0.09375 -0.984375q0 -1.046875 -0.09375 -1.203125q-0.078125 -0.171875 -0.171875 -0.171875q-0.125 0 -0.171875 0.09375q-0.03125 0.09375 -0.03125 1.25l0 2.0zm0.46875 2.484375q-0.1875 0.140625 -0.328125 0.5625q-0.140625 0.421875 -0.140625 1.34375q0 1.046875 0.0625 1.203125q0.078125 0.140625 0.203125 0.140625q0.125 0 0.15625 -0.078125q0.046875 -0.09375 0.046875 -1.078125l0 -2.09375zm19.050873 -12.328125l2.8125 18.84375l-5.75 0l-0.234375 -3.21875l-0.8125 0l-0.28125 3.21875l-5.765625 0l2.484375 -18.84375l7.546875 0zm-3.40625 11.515625q-0.28125 -2.53125 -0.171875 -7.046875q-0.234375 5.1875 -0.390625 7.046875l0.5625 0zm11.380127 -8.296875l-0.296875 0.890625q-0.140625 -0.21875 0.671875 -0.6875q0.8125 -0.46875 1.859375 -0.46875q1.296875 0 2.15625 0.640625q0.859375 0.640625 1.09375 1.578125q0.25 0.921875 0.25 2.921875l0 10.75l-5.40625 0l0 -10.640625q0 -1.4375 -0.046875 -1.5625q-0.03125 -0.140625 -0.140625 -0.140625q-0.125 0 -0.1875 0.1875q-0.0625 0.1875 -0.0625 1.765625l0 10.390625l-5.40625 0l0 -15.625l5.515625 0zm11.269928 6.625l-5.140625 0l0 -1.453125q0 -1.796875 0.4375 -2.828125q0.453125 -1.046875 1.75 -1.828125q1.3125 -0.78125 3.328125 -0.78125q2.40625 0 3.6875 0.90625q1.296875 0.890625 1.546875 2.1875q0.265625 1.28125 0.265625 4.953125l0 7.84375l-5.28125 0l0.25 -0.890625q0.171875 0.234375 -0.59375 0.703125q-0.765625 0.453125 -1.78125 0.453125q-1.3125 0 -2.46875 -0.765625q-1.140625 -0.765625 -1.140625 -3.25l0 -1.203125q0 -1.8125 0.609375 -2.515625q0.625 -0.71875 2.78125 -1.5625q2.046875 -0.796875 2.125 -0.953125q0.09375 -0.171875 0.09375 -0.984375q0 -1.046875 -0.09375 -1.203125q-0.078125 -0.171875 -0.171875 -0.171875q-0.125 0 -0.171875 0.09375q-0.03125 0.09375 -0.03125 1.25l0 2.0zm0.46875 2.484375q-0.1875 0.140625 -0.328125 0.5625q-0.140625 0.421875 -0.140625 1.34375q0 1.046875 0.0625 1.203125q0.078125 0.140625 0.203125 0.140625q0.125 0 0.15625 -0.078125q0.046875 -0.09375 0.046875 -1.078125l0 -2.09375zm11.557251 -12.328125l0 18.84375l-5.546875 0l0 -18.84375l5.546875 0zm11.018616 3.21875l-1.34375 11.15625q-0.296875 2.546875 -0.515625 3.53125q-0.21875 0.96875 -0.78125 1.671875q-0.546875 0.703125 -1.5 1.015625q-0.953125 0.3125 -2.890625 0.3125l-3.171875 0l0 -3.28125q1.421875 0 1.53125 -0.03125q0.109375 -0.046875 0.109375 -0.078125q0 -0.140625 -0.265625 -1.453125l-2.5625 -12.84375l5.03125 0l1.0625 10.375l0.265625 -10.375l5.03125 0zm9.858643 5.640625l-4.890625 0l0 -1.265625q0 -0.921875 -0.046875 -1.0q-0.03125 -0.09375 -0.1875 -0.09375q-0.140625 0 -0.21875 0.09375q-0.0625 0.09375 -0.0625 0.4375q0 0.609375 0.0625 0.8125q0.0625 0.203125 0.453125 0.53125q0.390625 0.3125 1.8125 1.0q2.046875 1.0 2.71875 1.9375q0.703125 0.96875 0.703125 2.71875q0 1.90625 -0.53125 2.953125q-0.515625 1.03125 -1.734375 1.578125q-1.21875 0.546875 -2.84375 0.546875q-1.796875 0 -3.140625 -0.578125q-1.328125 -0.59375 -1.84375 -1.625q-0.515625 -1.03125 -0.515625 -2.984375l0 -1.171875l4.890625 0l0 1.40625q0 1.078125 0.0625 1.25q0.078125 0.171875 0.203125 0.171875q0.25 0 0.3125 -0.078125q0.078125 -0.09375 0.078125 -0.703125q0 -0.859375 -0.125 -0.984375q-0.203125 -0.21875 -2.484375 -1.484375q-2.09375 -1.1875 -2.578125 -2.203125q-0.484375 -1.015625 -0.484375 -2.359375q0 -1.890625 0.53125 -2.84375q0.53125 -0.953125 1.765625 -1.453125q1.234375 -0.515625 2.796875 -0.515625q1.53125 0 2.640625 0.40625q1.125 0.40625 1.75 1.109375q0.640625 0.703125 0.765625 1.3125q0.140625 0.59375 0.140625 1.75l0 1.328125zm6.1487427 -8.859375l0 3.265625l-5.546875 0l0 -3.265625l5.546875 0zm0 3.21875l0 15.625l-5.546875 0l0 -15.625l5.546875 0zm10.721741 5.640625l-4.890625 0l0 -1.265625q0 -0.921875 -0.046875 -1.0q-0.03125 -0.09375 -0.1875 -0.09375q-0.140625 0 -0.21875 0.09375q-0.0625 0.09375 -0.0625 0.4375q0 0.609375 0.0625 0.8125q0.0625 0.203125 0.453125 0.53125q0.390625 0.3125 1.8125 1.0q2.046875 1.0 2.71875 1.9375q0.703125 0.96875 0.703125 2.71875q0 1.90625 -0.53125 2.953125q-0.515625 1.03125 -1.734375 1.578125q-1.21875 0.546875 -2.84375 0.546875q-1.796875 0 -3.140625 -0.578125q-1.328125 -0.59375 -1.84375 -1.625q-0.515625 -1.03125 -0.515625 -2.984375l0 -1.171875l4.890625 0l0 1.40625q0 1.078125 0.0625 1.25q0.078125 0.171875 0.203125 0.171875q0.25 0 0.3125 -0.078125q0.078125 -0.09375 0.078125 -0.703125q0 -0.859375 -0.125 -0.984375q-0.203125 -0.21875 -2.484375 -1.484375q-2.09375 -1.1875 -2.578125 -2.203125q-0.484375 -1.015625 -0.484375 -2.359375q0 -1.890625 0.53125 -2.84375q0.53125 -0.953125 1.765625 -1.453125q1.234375 -0.515625 2.796875 -0.515625q1.53125 0 2.640625 0.40625q1.125 0.40625 1.75 1.109375q0.640625 0.703125 0.765625 1.3125q0.140625 0.59375 0.140625 1.75l0 1.328125zm20.032959 -8.859375l0 18.84375l-5.0 0l0.46875 -12.5625l-1.21875 12.5625l-3.703125 0l-1.3125 -12.28125l0.46875 12.28125l-5.015625 0l0 -18.84375l6.890625 0q0.34375 2.015625 0.640625 4.203125l0.1875 4.625l0.640625 -8.828125l6.953125 0zm11.86499 11.765625l-5.78125 0l0 2.703125q0 0.890625 0.046875 1.0q0.0625 0.109375 0.171875 0.109375q0.21875 0 0.296875 -0.1875q0.09375 -0.203125 0.09375 -1.203125l0 -2.40625l5.171875 0l0 1.546875q0 1.40625 -0.1875 2.21875q-0.1875 0.8125 -0.890625 1.734375q-0.703125 0.90625 -1.78125 1.375q-1.0625 0.453125 -2.609375 0.453125q-1.5 0 -2.6875 -0.4375q-1.1875 -0.453125 -1.859375 -1.25q-0.671875 -0.8125 -0.9375 -1.734375q-0.25 -0.9375 -0.25 -2.640625l0 -4.28125q0 -2.03125 0.578125 -3.265625q0.578125 -1.234375 1.890625 -1.890625q1.3125 -0.65625 2.953125 -0.65625q2.0 0 3.34375 0.796875q1.359375 0.78125 1.890625 2.078125q0.546875 1.296875 0.546875 3.515625l0 2.421875zm-5.421875 -3.328125l0 -0.609375q0 -1.046875 -0.0625 -1.1875q-0.046875 -0.140625 -0.09375 -0.140625q-0.125 0 -0.171875 0.09375q-0.03125 0.09375 -0.03125 1.234375l0 0.609375l0.359375 0zm11.598145 -7.171875l0 2.3125l1.203125 0l0 3.265625l-1.203125 0l0 7.375q0 1.265625 0.015625 1.296875q0.015625 0.015625 1.375 0.015625l0 3.3125l-2.28125 0q-1.5625 0 -2.3125 -0.140625q-0.734375 -0.140625 -1.34375 -0.703125q-0.609375 -0.5625 -0.75 -1.25q-0.125 -0.6875 -0.125 -2.921875l0 -6.984375l-0.96875 0l0 -3.265625l0.96875 0l0 -2.3125l5.421875 0zm6.653076 -1.265625l-0.125 3.703125q-0.015625 -0.15625 0.71875 -0.453125q0.75 -0.296875 1.609375 -0.296875q1.328125 0 2.28125 0.703125q0.96875 0.6875 1.171875 1.59375q0.203125 0.890625 0.203125 3.0l0 10.59375l-5.40625 0l0 -10.796875q0 -1.203125 -0.0625 -1.375q-0.046875 -0.171875 -0.15625 -0.171875q-0.09375 0 -0.171875 0.1875q-0.0625 0.171875 -0.0625 1.21875l0 10.9375l-5.40625 0l0 -18.84375l5.40625 0zm17.510803 8.84375l0 3.609375q0 2.015625 -0.21875 3.015625q-0.203125 1.0 -0.9375 1.90625q-0.734375 0.890625 -1.859375 1.3125q-1.125 0.421875 -2.53125 0.421875q-1.5625 0 -2.6875 -0.359375q-1.109375 -0.359375 -1.765625 -1.109375q-0.640625 -0.75 -0.921875 -1.765625q-0.265625 -1.015625 -0.265625 -2.9375l0 -3.765625q0 -2.140625 0.484375 -3.390625q0.5 -1.265625 1.765625 -2.046875q1.28125 -0.78125 3.203125 -0.78125q1.59375 0 2.765625 0.5q1.1875 0.484375 1.828125 1.296875q0.65625 0.796875 0.890625 1.640625q0.25 0.84375 0.25 2.453125zm-5.40625 -1.09375q0 -1.046875 -0.046875 -1.140625q-0.046875 -0.109375 -0.125 -0.109375q-0.09375 0 -0.140625 0.109375q-0.046875 0.109375 -0.046875 1.140625l0 6.625q0 0.9375 0.046875 1.078125q0.0625 0.125 0.125 0.125q0.09375 0 0.140625 -0.09375q0.046875 -0.109375 0.046875 -0.96875l0 -6.765625zm17.05133 -7.75l0 18.84375l-5.40625 0l0.09375 -0.609375q0.015625 0.140625 -0.78125 0.515625q-0.796875 0.359375 -1.6875 0.359375q-1.1875 0 -2.078125 -0.640625q-0.890625 -0.640625 -1.140625 -1.46875q-0.25 -0.828125 -0.25 -2.515625l0 -6.875q0 -1.765625 0.25 -2.578125q0.25 -0.828125 1.15625 -1.453125q0.90625 -0.625 2.125 -0.625q0.921875 0 1.6875 0.34375q0.78125 0.34375 0.75 0.5l-0.125 -3.796875l5.40625 0zm-5.40625 7.390625q0 -0.703125 -0.046875 -0.796875q-0.046875 -0.09375 -0.171875 -0.09375q-0.125 0 -0.171875 0.078125q-0.03125 0.0625 -0.03125 0.8125l0 7.1875q0 0.796875 0.046875 0.90625q0.046875 0.09375 0.125 0.09375q0.125 0 0.1875 -0.140625q0.0625 -0.140625 0.0625 -1.25l0 -6.796875zm16.130005 1.46875l-4.890625 0l0 -1.265625q0 -0.921875 -0.046875 -1.0q-0.03125 -0.09375 -0.1875 -0.09375q-0.140625 0 -0.21875 0.09375q-0.0625 0.09375 -0.0625 0.4375q0 0.609375 0.0625 0.8125q0.0625 0.203125 0.453125 0.53125q0.390625 0.3125 1.8125 1.0q2.046875 1.0 2.71875 1.9375q0.703125 0.96875 0.703125 2.71875q0 1.90625 -0.53125 2.953125q-0.515625 1.03125 -1.734375 1.578125q-1.21875 0.546875 -2.84375 0.546875q-1.796875 0 -3.140625 -0.578125q-1.328125 -0.59375 -1.84375 -1.625q-0.515625 -1.03125 -0.515625 -2.984375l0 -1.171875l4.890625 0l0 1.40625q0 1.078125 0.0625 1.25q0.078125 0.171875 0.203125 0.171875q0.25 0 0.3125 -0.078125q0.078125 -0.09375 0.078125 -0.703125q0 -0.859375 -0.125 -0.984375q-0.203125 -0.21875 -2.484375 -1.484375q-2.09375 -1.1875 -2.578125 -2.203125q-0.484375 -1.015625 -0.484375 -2.359375q0 -1.890625 0.53125 -2.84375q0.53125 -0.953125 1.765625 -1.453125q1.234375 -0.515625 2.796875 -0.515625q1.53125 0 2.640625 0.40625q1.125 0.40625 1.75 1.109375q0.640625 0.703125 0.765625 1.3125q0.140625 0.59375 0.140625 1.75l0 1.328125z" fill-rule="nonzero"/></g></svg>